<svg id="account" xmlns="http://www.w3.org/2000/svg" width="160.466" height="165.956" viewBox="0 0 160.466 165.956">
  <g id="Group_168" data-name="Group 168" transform="translate(0)">
    <path id="Path_2588" data-name="Path 2588" d="M171.7,88.862h1.079c9.883-.171,17.878-3.688,23.78-10.416,12.987-14.822,10.828-40.23,10.592-42.655-.843-18.2-9.344-26.911-16.36-30.975A37.147,37.147,0,0,0,172.641,0h-.574A37.189,37.189,0,0,0,153.92,4.679c-7.084,4.064-15.719,12.773-16.562,31.112-.236,2.425-2.395,27.833,10.592,42.655C153.819,85.173,161.813,88.691,171.7,88.862Z" transform="translate(-95.373)" fill="#929292"/>
    <path id="Path_2601" data-name="Path 2601" d="M65.127,304.2H95.339a65.126,65.126,0,0,1,65.127,65.126H0A65.126,65.126,0,0,1,65.127,304.2Z" transform="translate(0 -203.371)" fill="#929292"/>
  </g>
</svg>
