<svg id="shopping-cart" xmlns="http://www.w3.org/2000/svg" width="174.103" height="165.955" viewBox="0 0 174.103 165.955">
  <g id="Group_2415" data-name="Group 2415" transform="translate(111.707 125.357)">
    <g id="Group_2414" data-name="Group 2414">
      <path id="Path_2695" data-name="Path 2695" d="M312.651,338.862a20.3,20.3,0,1,0,20.3,20.3A20.538,20.538,0,0,0,312.651,338.862Z" transform="translate(-292.352 -338.862)" fill="#929292"/>
    </g>
  </g>
  <g id="Group_2417" data-name="Group 2417">
    <g id="Group_2416" data-name="Group 2416">
      <path id="Path_2696" data-name="Path 2696" d="M167.715,39.03c-.391,0-.977-.2-1.564-.2H43l-1.955-13.1a17.507,17.507,0,0,0-17.4-15.06H7.819a7.824,7.824,0,0,0,0,15.647H23.652a2.079,2.079,0,0,1,1.955,1.76l12.119,82.539a21.436,21.436,0,0,0,21.111,18.19h81.316a21.727,21.727,0,0,0,21.111-17.212L173.97,48.028A7.731,7.731,0,0,0,167.715,39.03Z" transform="translate(0 -10.67)" fill="#929292"/>
    </g>
  </g>
  <g id="Group_2419" data-name="Group 2419" transform="translate(42.423 125.357)">
    <g id="Group_2418" data-name="Group 2418">
      <path id="Path_2697" data-name="Path 2697" d="M150.705,358.185a20.181,20.181,0,0,0-20.1-19.323,20.416,20.416,0,0,0-19.518,21.08,20.006,20.006,0,0,0,19.909,19.323h.39A20.255,20.255,0,0,0,150.705,358.185Z" transform="translate(-111.07 -338.862)" fill="#929292"/>
    </g>
  </g>
</svg>
