<svg xmlns="http://www.w3.org/2000/svg" width="16" height="16.167" viewBox="0 0 16 16.167">
  <path id="chinese" d="M16,4.242l-.072-.53a.5.5,0,0,0-.19-.331.47.47,0,0,0-.363-.093L6.983,4.607a1.852,1.852,0,0,1,.2-.632c.016-.035.032-.072.049-.112l7.693-2.376a.485.485,0,0,0,.289-.244.508.508,0,0,0,.034-.383L15.089.349a.491.491,0,0,0-.241-.294.469.469,0,0,0-.373-.03L12.182.8l-1.042.354L7.472,2.4a.418.418,0,0,0-.1-.12.4.4,0,0,0-.38-.069l-.385.131a.415.415,0,0,0-.278.364c0,.03-.005.058-.009.085L5.8,2.97a.416.416,0,0,0-.078-.1.4.4,0,0,0-.4-.089l-.429.146a.411.411,0,0,0-.252.247c-.029.076-.062.151-.1.223L4,3.584a.413.413,0,0,0-.048-.069.4.4,0,0,0-.432-.12l-.471.16a.409.409,0,0,0-.255.254c-.024.068-.044.136-.063.205L2.2,4.194a.421.421,0,0,0-.085-.106.4.4,0,0,0-.4-.082l-.386.131a.418.418,0,0,0-.277.356q0,.046-.008.093l-.516.175a.5.5,0,0,0-.31.623L.258,5.5a.493.493,0,0,0,.259.3.508.508,0,0,0-.067.327l.017.124a.492.492,0,0,0,.48.43.483.483,0,0,0,.06,0l.477-.061a1.779,1.779,0,0,1,.1.638,1.817,1.817,0,0,1-.211.908,3.657,3.657,0,0,0-.223.583H.371A.366.366,0,0,0,.1,8.874.388.388,0,0,0,0,9.167,7.821,7.821,0,0,0,3.32,15.02v.412a.726.726,0,0,0,.715.735h6.1a.726.726,0,0,0,.715-.735v-.414a7.823,7.823,0,0,0,3.315-5.851.387.387,0,0,0-.094-.293.366.366,0,0,0-.274-.125H7.17l.01-.023a3.128,3.128,0,0,0,.332-1.468,3.074,3.074,0,0,0-.291-1.377L15.577,4.8a.478.478,0,0,0,.324-.191.5.5,0,0,0,.1-.372ZM6.384,4.019h0c.024-.074.051-.143.079-.208h0c.028-.066.056-.128.085-.19l.009-.02.014-.03.01-.022.025-.057,0-.008.022-.053.006-.016.024-.061.005-.014.018-.051.007-.02c.007-.02.013-.041.02-.063l.007-.023.014-.05.006-.025q.008-.034.016-.07l0-.01v0a2.281,2.281,0,0,0,.034-.232L7.049,2.7c0,.034-.008.067-.013.1l0,.016c0,.029-.009.058-.014.087l0,.024C7.01,2.965,7,3,7,3.031v.005c-.006.031-.013.062-.021.093l-.007.029c-.007.03-.015.06-.023.09l0,.011q-.013.046-.027.092l-.006.018q-.015.049-.032.1l0,.007c-.012.035-.024.069-.038.1h0c-.027.071-.055.135-.08.192A2.3,2.3,0,0,0,6.5,4.882s0,0,0,.007h0c0,.028,0,.055,0,.082s0,.034,0,.051,0,.02,0,.03,0,.039,0,.057,0,.009,0,.013a2.153,2.153,0,0,0,.078.446v0q.019.065.041.125v0c.038.1.081.2.125.3a2.631,2.631,0,0,1,.288,1.263,2.632,2.632,0,0,1-.288,1.263c-.033.073-.068.148-.1.228H6.391a3.865,3.865,0,0,1,.156-.378A2.3,2.3,0,0,0,6.8,7.258a2.3,2.3,0,0,0-.256-1.113,3.494,3.494,0,0,1-.177-.44h0a2.651,2.651,0,0,1-.109-.711h0c0-.036,0-.072,0-.11a2.675,2.675,0,0,1,.124-.863ZM5.6,8.726a3.128,3.128,0,0,0,.332-1.468,3.086,3.086,0,0,0-.209-1.184l.272-.035c.044.115.09.216.134.311a1.817,1.817,0,0,1,.211.908,1.817,1.817,0,0,1-.211.908,3.646,3.646,0,0,0-.223.583H5.585l.01-.023ZM5.43,4.419l.407-.126a3.544,3.544,0,0,0-.044.5l-.408.064a2.012,2.012,0,0,1,.045-.439ZM4.7,4.5v0A2.367,2.367,0,0,1,4.84,3.9l0-.006c.01-.027.021-.053.032-.079l.005-.013.011-.025L4.9,3.77l.015-.035,0-.008L4.927,3.7l.036-.079c.034-.074.072-.156.106-.244l.294-.1a3.216,3.216,0,0,1-.187.484l0,.011-.006.014-.015.032-.012.027-.009.02L5.114,3.9l0,.008a2.215,2.215,0,0,0-.194.974c0,.1,0,.192.012.276v0c0,.012,0,.023,0,.035s0,.026,0,.039,0,.033.007.049l0,.017a2.026,2.026,0,0,0,.124.46l.005.014.007.017.016.04,0,.008c.021.049.042.1.063.141h0l.008.016A2.632,2.632,0,0,1,5.46,7.258a2.631,2.631,0,0,1-.288,1.263c-.034.073-.068.148-.1.228H4.807a3.9,3.9,0,0,1,.156-.378,2.3,2.3,0,0,0,.256-1.113,2.3,2.3,0,0,0-.256-1.113c-.039-.085-.078-.17-.114-.263h0a2.371,2.371,0,0,1-.157-.659v0c-.01-.1-.016-.214-.016-.338A3.354,3.354,0,0,1,4.7,4.5ZM4.539,6.35a1.818,1.818,0,0,1,.211.908,1.819,1.819,0,0,1-.211.908,3.65,3.65,0,0,0-.223.583H4l.01-.023a3.127,3.127,0,0,0,.332-1.468A3.205,3.205,0,0,0,4.2,6.27l.283-.036.053.117ZM4.208,4.8c0,.028,0,.057,0,.086,0,.055,0,.109,0,.161l-.4.063Q3.8,5.022,3.8,4.922Zm-.619-1.03,0,0,0,0,0,0ZM3.091,4.8c0-.016,0-.032,0-.047s0-.02,0-.029,0-.037,0-.055V4.651c0-.019,0-.038,0-.057V4.581c0-.019,0-.038.005-.056V4.515c.006-.051.012-.1.02-.144l.005-.033,0-.026c0-.017.006-.033.01-.049A2.245,2.245,0,0,1,3.22,4L3.529,3.9a2.219,2.219,0,0,0-.2.984,2.22,2.22,0,0,0,.2.987h0l.027.062v0l.028.061L3.59,6l.034.075v0l.038.086h0a2.557,2.557,0,0,1,.211,1.092,2.634,2.634,0,0,1-.288,1.263c-.034.073-.068.148-.1.228H3.222a3.864,3.864,0,0,1,.156-.378,2.3,2.3,0,0,0,.256-1.113,2.3,2.3,0,0,0-.256-1.113l-.037-.081h0L3.314,6V6a2.466,2.466,0,0,1-.175-.555v0a2.978,2.978,0,0,1-.046-.486h0c0-.025,0-.05,0-.075s0-.054,0-.081Zm-.1,1.625a1.75,1.75,0,0,1,.177.832,1.819,1.819,0,0,1-.211.908,3.657,3.657,0,0,0-.223.583H2.416l.011-.023a3.128,3.128,0,0,0,.332-1.468,3.4,3.4,0,0,0-.085-.791ZM2.643,5.29l-.066.01.065-.02Zm-1.1.111v0c-.013-.079-.023-.161-.029-.246,0,0,0,0,0,0,0-.018,0-.036,0-.054v-.02c0-.014,0-.027,0-.041s0-.015,0-.023,0-.028,0-.043,0-.014,0-.021,0-.043,0-.065,0-.041,0-.062,0-.03,0-.045c0-.067.005-.132.011-.195L1.771,4.5c0,.02-.005.041-.007.062l0,.02c0,.024,0,.049-.006.073,0,.008,0,.016,0,.025,0,.024,0,.049,0,.075,0,.009,0,.018,0,.027q0,.052,0,.106t0,.1a2.2,2.2,0,0,0,.222.942l0,.007L2,6V6l.036.079h0c.038.084.075.171.109.267h0a2.633,2.633,0,0,1,.141.913A2.632,2.632,0,0,1,2,8.521c-.034.073-.068.148-.1.228H1.637a3.864,3.864,0,0,1,.156-.378,2.3,2.3,0,0,0,.256-1.113,2.3,2.3,0,0,0-.255-1.111v0L1.774,6.1l-.007-.015-.021-.046,0-.01-.022-.05,0-.006-.023-.055v0A2.5,2.5,0,0,1,1.6,5.663v0A2.328,2.328,0,0,1,1.545,5.4Z" transform="translate(-0.001 0)" fill="#fff"/>
</svg>
