<svg id="coupon" xmlns="http://www.w3.org/2000/svg" width="18.285" height="11.785" viewBox="0 0 18.285 11.785">
  <path id="Path_2700" data-name="Path 2700" d="M17.749,91H5.4v1.607a.536.536,0,1,1-1.071,0V91H.536A.535.535,0,0,0,0,91.536V94.75a.535.535,0,0,0,.536.536,1.607,1.607,0,0,1,0,3.214A.535.535,0,0,0,0,99.035v3.214a.535.535,0,0,0,.536.536h3.75v-1.607a.536.536,0,0,1,1.071,0v1.607H17.749a.535.535,0,0,0,.536-.536V91.536A.535.535,0,0,0,17.749,91ZM5.357,99.035a.536.536,0,1,1-1.071,0V97.964a.536.536,0,1,1,1.071,0Zm0-3.214a.536.536,0,1,1-1.071,0V94.75a.536.536,0,1,1,1.071,0ZM8.642,94.75a1.607,1.607,0,1,1,1.607,1.607A1.609,1.609,0,0,1,8.642,94.75Zm1.31,5.8A.535.535,0,0,1,9.8,99.81l4.286-6.428a.536.536,0,1,1,.891.594L10.7,100.4A.536.536,0,0,1,9.952,100.552Zm4.583.09a1.607,1.607,0,1,1,1.607-1.607A1.609,1.609,0,0,1,14.535,100.642Z" transform="translate(0 -91)" fill="#fd5800"/>
  <g id="coupon-2" data-name="coupon" transform="translate(-0.142 -91)">
    <g id="Group_2429" data-name="Group 2429" transform="translate(13.999 98.5)">
      <g id="Group_2428" data-name="Group 2428" transform="translate(0 0)">
        <path id="Path_2699" data-name="Path 2699" d="M392.536,301a.536.536,0,1,0,.536.536A.536.536,0,0,0,392.536,301Z" transform="translate(-392 -301)" fill="#fd5800"/>
      </g>
    </g>
    <g id="Group_2433" data-name="Group 2433" transform="translate(9.714 94.214)">
      <g id="Group_2432" data-name="Group 2432" transform="translate(0 0)">
        <path id="Path_2701" data-name="Path 2701" d="M272.536,181a.536.536,0,1,0,.536.536A.536.536,0,0,0,272.536,181Z" transform="translate(-272 -181)" fill="#fd5800"/>
      </g>
    </g>
  </g>
</svg>
