<svg xmlns="http://www.w3.org/2000/svg" width="10.807" height="10.807" viewBox="0 0 10.807 10.807">
  <g id="cross-sign" transform="translate(0 -5)">
    <path id="Path_2698" data-name="Path 2698" d="M10.656.96,9.909.222a.536.536,0,0,0-.747,0L5.439,3.946,1.645.152A.535.535,0,0,0,.9.152L.152.9a.535.535,0,0,0,0,.747L3.937,5.43.222,9.163a.536.536,0,0,0,0,.747l.747.747a.536.536,0,0,0,.747,0L5.439,6.932l3.724,3.724a.536.536,0,0,0,.747,0l.747-.747a.536.536,0,0,0,0-.747L6.923,5.439l3.724-3.724A.538.538,0,0,0,10.656.96Z" transform="translate(0 5)" fill="#fd5800"/>
  </g>
</svg>
