<svg xmlns="http://www.w3.org/2000/svg" width="11.562" height="13.219" viewBox="0 0 11.562 13.219">
  <g id="cutlery" transform="translate(-30.912)">
    <path id="Path_2691" data-name="Path 2691" d="M32.574,0c-.714,0-1.662,1.769-1.662,3.12a1.572,1.572,0,0,0,.808,1.6.966.966,0,0,1,.577.969l-.7,6.544a.855.855,0,0,0,.249.692,1.036,1.036,0,0,0,1.448,0,.855.855,0,0,0,.249-.692l-.7-6.544a.967.967,0,0,1,.577-.969,1.572,1.572,0,0,0,.808-1.6C34.235,1.769,33.326,0,32.574,0Z" transform="translate(0)" fill="#fd5800"/>
    <path id="Path_2692" data-name="Path 2692" d="M203.531,0a.229.229,0,0,0-.238.219v2.7a.24.24,0,0,1-.479,0V.219A.229.229,0,0,0,202.576,0h0a.229.229,0,0,0-.238.219v2.7a.24.24,0,0,1-.479,0V.219A.229.229,0,0,0,201.618,0h0a.229.229,0,0,0-.238.219v2.7a.24.24,0,0,1-.479,0V.219A.229.229,0,0,0,200.66,0a.217.217,0,0,0-.226.207V3.12a1.572,1.572,0,0,0,.808,1.6.966.966,0,0,1,.577.969l-.7,6.544a.855.855,0,0,0,.249.692,1.036,1.036,0,0,0,1.448,0,.855.855,0,0,0,.249-.692l-.7-6.544a.967.967,0,0,1,.577-.969,1.572,1.572,0,0,0,.808-1.6V.207A.217.217,0,0,0,203.531,0Z" transform="translate(-165.12)" fill="#fd5800"/>
    <path id="Path_2693" data-name="Path 2693" d="M388.654,6.243a.157.157,0,0,0,.163-.15V.263A.276.276,0,0,0,388.53,0a.3.3,0,0,0-.3.2l-.992,3.183a3.03,3.03,0,0,0,.485,2.732.319.319,0,0,0,.256.124l-.638,5.99a.854.854,0,0,0,.249.692,1.036,1.036,0,0,0,1.448,0,.855.855,0,0,0,.249-.692Z" transform="translate(-346.821)" fill="#fd5800"/>
  </g>
</svg>
