<svg xmlns="http://www.w3.org/2000/svg" width="15" height="12.787" viewBox="0 0 15 12.787">
  <g id="desserts" transform="translate(0 -44.481)">
    <g id="XMLID_757_" transform="translate(4.25 44.821)">
      <path id="XMLID_758_" d="M151.8,89.446a1.658,1.658,0,1,1-.63-1.3A1.659,1.659,0,0,1,151.8,89.446Z" transform="translate(-148.48 -86.819)" fill="#fff"/>
      <path id="XMLID_759_" d="M152.612,100.909a1.659,1.659,0,0,1-3.292.29h2.461a3.179,3.179,0,0,1,.2-1.591A1.657,1.657,0,0,1,152.612,100.909Z" transform="translate(-149.295 -98.281)" fill="#fff"/>
      <g id="XMLID_760_" transform="translate(2.825 0)">
        <path id="XMLID_1429_" d="M241.98,58.668a3.46,3.46,0,0,0,.083.435.3.3,0,0,0,.214.214,2.715,2.715,0,0,0,2.647-.6l.051-.053a2.734,2.734,0,0,0,.544-2.593.3.3,0,0,0-.214-.214,2.715,2.715,0,0,0-2.647.6A2.6,2.6,0,0,0,241.98,58.668Z" transform="translate(-241.954 -55.751)" fill="#fff"/>
        <path id="XMLID_1428_" d="M242.819,152.251a3.46,3.46,0,0,0,.083.435.3.3,0,0,0,.214.214,2.715,2.715,0,0,0,2.647-.6l.051-.053Z" transform="translate(-242.793 -149.334)" fill="#fff"/>
      </g>
    </g>
    <rect id="XMLID_761_" width="11.615" height="5.02" transform="translate(1.693 49.561)" fill="#fff"/>
    <path id="XMLID_762_" d="M67.615,212.567v.753H65.6a.462.462,0,0,0-.452.471v1.683a1.16,1.16,0,1,1-2.319,0v-1.683a.453.453,0,1,0-.9,0v.677a1.1,1.1,0,1,1-2.207,0v-.677a.462.462,0,0,0-.452-.471H56v-.753Z" transform="translate(-54.307 -163.006)" fill="#fff"/>
    <rect id="XMLID_763_" width="11.615" height="1.747" transform="translate(1.693 49.561)" fill="#fff"/>
    <path id="XMLID_764_" d="M67.615,212.567v.753H65.6a.462.462,0,0,0-.452.471v.524H62.828v-.524a.453.453,0,1,0-.9,0v.524H59.717v-.524a.462.462,0,0,0-.452-.471H56v-.753Z" transform="translate(-54.307 -163.006)" fill="#fff"/>
    <g id="XMLID_765_" transform="translate(0.227 54.27)">
      <path id="XMLID_766_" d="M60.886,410.536v1.169a.321.321,0,0,1-.314.327H49.152a.321.321,0,0,1-.314-.327v-1.169Z" transform="translate(-47.589 -409.262)" fill="#fff"/>
      <rect id="XMLID_767_" width="12.048" height="0.687" transform="translate(1.249 1.274)" fill="#fff"/>
      <path id="XMLID_1419_" d="M8.234,369.969H21.312a.747.747,0,0,0,.734-.758V368.6a.224.224,0,0,0-.22-.227H7.72a.224.224,0,0,0-.22.227v.612A.747.747,0,0,0,8.234,369.969Z" transform="translate(-7.5 -368.372)" fill="#fff"/>
    </g>
    <path id="XMLID_768_" d="M26.5,167.728h0a.871.871,0,0,0,.856.886h3.287a.82.82,0,0,1,.8.833v.677a.773.773,0,0,0,.759.786h0a.773.773,0,0,0,.759-.786v-.677a.82.82,0,0,1,.8-.833h0a.82.82,0,0,1,.8.833v1.683a.83.83,0,0,0,.815.844h0a.83.83,0,0,0,.815-.844v-1.683a.82.82,0,0,1,.8-.833h2.032a.871.871,0,0,0,.856-.886h0a.871.871,0,0,0-.856-.886H27.356A.871.871,0,0,0,26.5,167.728Z" transform="translate(-25.699 -118.663)" fill="#fff"/>
    <g id="XMLID_769_" transform="translate(0 44.481)">
      <path id="XMLID_770_" d="M14.56,54.044h-.981V50.156a1.116,1.116,0,0,0-.214-2.2H12.254a.227.227,0,0,0,0,.453h1.111a.66.66,0,0,1,0,1.319H11.325a1.045,1.045,0,0,0-1.028,1.06v1.683a.6.6,0,1,1-1.2,0V50.785a1.028,1.028,0,1,0-2.055,0v.677a.542.542,0,1,1-1.084,0v-.677a1.045,1.045,0,0,0-1.028-1.06h-3.3a.66.66,0,0,1,0-1.319h9.607a.227.227,0,0,0,0-.453h-1.12a3.02,3.02,0,0,0,.634-2.863.516.516,0,0,0-.365-.377,2.8,2.8,0,0,0-2.776.654,2.554,2.554,0,0,0-.461.658A1.779,1.779,0,0,0,5.616,45.6a2.136,2.136,0,0,0-.846-1.082.216.216,0,0,0-.3.074.231.231,0,0,0,.072.312,1.686,1.686,0,0,1,.655.835A1.892,1.892,0,0,0,4.13,47.448a1.936,1.936,0,0,0,.066.5H1.635a1.116,1.116,0,0,0-.214,2.2v3.888H.44A.448.448,0,0,0,0,54.5v.612a.971.971,0,0,0,.955.985h.256v.62a.546.546,0,0,0,.536.553H13.253a.546.546,0,0,0,.536-.553v-.62h.256A.971.971,0,0,0,15,55.11V54.5A.448.448,0,0,0,14.56,54.044ZM7.927,45.686a2.343,2.343,0,0,1,2.355-.536.07.07,0,0,1,.049.051,2.531,2.531,0,0,1-.519,2.43,2.026,2.026,0,0,1-.4.318l0,0H7.926l.471-.486a1.988,1.988,0,0,0,.49.061,2.033,2.033,0,0,0,.23-.013.225.225,0,0,0,.194-.25.221.221,0,0,0-.242-.2,1.593,1.593,0,0,1-.288.007l.235-.243a1.989,1.989,0,0,0,.49.061,2.032,2.032,0,0,0,.23-.013.225.225,0,0,0,.194-.25.221.221,0,0,0-.242-.2,1.593,1.593,0,0,1-.288.007l.3-.309a.232.232,0,0,0,0-.321.215.215,0,0,0-.311,0l-.3.309a1.749,1.749,0,0,1,.006-.3.225.225,0,0,0-.194-.25.222.222,0,0,0-.242.2,2.189,2.189,0,0,0,.047.742l-.236.243a1.749,1.749,0,0,1,.006-.3.225.225,0,0,0-.194-.25.222.222,0,0,0-.242.2,2.189,2.189,0,0,0,.047.742l-.727.75A2.468,2.468,0,0,1,7.927,45.686ZM4.57,47.448a1.439,1.439,0,0,1,.749-1.271,2.143,2.143,0,0,1,.038.332.22.22,0,1,0,.439,0,2.6,2.6,0,0,0-.055-.475,1.349,1.349,0,0,1,.217-.018,1.367,1.367,0,0,1,1.023.465,3.307,3.307,0,0,0-.058,1.471H4.658A1.462,1.462,0,0,1,4.57,47.448Zm6.756,2.73H13.14v.9h-2.4v-.3A.6.6,0,0,1,11.325,50.178Zm-3.252,0a.6.6,0,0,1,.588.607v.3H7.485v-.3A.6.6,0,0,1,8.073,50.178Zm-2.551.607v.3H1.86v-.9H4.934A.6.6,0,0,1,5.522,50.785Zm9.038,4.325a.524.524,0,0,1-.515.532h-2.29a.227.227,0,0,0,0,.453h1.594v.62a.1.1,0,0,1-.1.1H1.747a.1.1,0,0,1-.1-.1v-.62h9.094a.227.227,0,0,0,0-.453H.955a.524.524,0,0,1-.515-.532V54.5H6a.227.227,0,0,0,0-.453H1.86V51.535H5.525a.979.979,0,0,0,1.957,0H8.662v.932a1.038,1.038,0,1,0,2.076,0v-.932h2.4v2.509H7.01a.227.227,0,0,0,0,.453h7.551Z" transform="translate(0 -44.481)" fill="#fd5800"/>
      <path id="XMLID_778_" d="M86.022,293.952h0a.227.227,0,1,0,0,.453h0a.227.227,0,1,0,0-.453Z" transform="translate(-83.199 -286.412)" fill="#fd5800"/>
      <path id="XMLID_779_" d="M108.273,311.873h0a.227.227,0,1,0,0,.453h0a.227.227,0,0,0,0-.453Z" transform="translate(-104.881 -303.791)" fill="#fd5800"/>
      <path id="XMLID_780_" d="M400.727,289.854h0a.227.227,0,1,0,0-.453h0a.227.227,0,0,0,0,.453Z" transform="translate(-388.778 -281.998)" fill="#fd5800"/>
    </g>
  </g>
</svg>
