<svg id="conversation" xmlns="http://www.w3.org/2000/svg" width="15.843" height="15.843" viewBox="0 0 15.843 15.843">
  <path id="Path_2675" data-name="Path 2675" d="M18.54,184H11.857A1.857,1.857,0,0,0,10,185.857v4.765a1.857,1.857,0,0,0,1.857,1.857h2.011l-.028,0L15.2,193.84v-1.361H18.54a1.857,1.857,0,0,0,1.857-1.857v-4.765A1.857,1.857,0,0,0,18.54,184Z" transform="translate(-9.691 -178.307)" fill="#fd5800"/>
  <path id="Path_2677" data-name="Path 2677" d="M210.971,10h-.783A4.188,4.188,0,0,0,206,14.188h0a4.188,4.188,0,0,0,4.188,4.188h.783a4.187,4.187,0,0,0,1.232-.184l1.286,1.285V17.535a4.182,4.182,0,0,0,1.671-3.347h0A4.188,4.188,0,0,0,210.971,10Z" transform="translate(-199.626 -9.691)" fill="#fd5800"/>
  <path id="Path_2676" data-name="Path 2676" d="M5.508,184.459a.309.309,0,0,1-.219-.091L4.018,183.1H2.166A2.169,2.169,0,0,1,0,180.931v-4.765A2.169,2.169,0,0,1,2.166,174H5.291a.309.309,0,0,1,0,.619H2.166a1.549,1.549,0,0,0-1.547,1.547v4.765a1.549,1.549,0,0,0,1.547,1.547H4.177a.31.31,0,0,1,.284.186l.739.738v-.615a.31.31,0,0,1,.309-.309H8.85a1.549,1.549,0,0,0,1.547-1.547V178.8a.309.309,0,1,1,.619,0v2.135A2.169,2.169,0,0,1,8.85,183.1H5.818v1.052a.31.31,0,0,1-.309.309Z" transform="translate(0 -168.616)" fill="none"/>
  <path id="Path_2678" data-name="Path 2678" d="M203.8,10.1a.31.31,0,0,1-.219-.091l-1.157-1.156a4.505,4.505,0,0,1-1.142.146H200.5A4.5,4.5,0,0,1,200.5,0h.783a4.5,4.5,0,0,1,4.5,4.5,4.45,4.45,0,0,1-.489,2.041A4.546,4.546,0,0,1,204.107,8v1.79a.31.31,0,0,1-.309.309Zm-1.286-1.9a.31.31,0,0,1,.219.091l.757.757V7.845a.309.309,0,0,1,.123-.247A3.879,3.879,0,0,0,201.281.619H200.5a3.879,3.879,0,0,0,0,7.757h.783a3.879,3.879,0,0,0,1.141-.171A.31.31,0,0,1,202.512,8.192Z" transform="translate(-189.935)" fill="#fff"/>
  <path id="Path_2679" data-name="Path 2679" d="M315.772,73.675a.309.309,0,0,1-.309-.309v-.743a.585.585,0,0,1,.461-.574.691.691,0,1,0-.843-.674.309.309,0,0,1-.619,0,1.315,1.315,0,0,1,.416-.958,1.3,1.3,0,0,1,.986-.349,1.31,1.31,0,0,1,.217,2.58v.719A.309.309,0,0,1,315.772,73.675Z" transform="translate(-304.732 -67.895)" fill="#fff"/>
  <path id="Path_2680" data-name="Path 2680" d="M347.109,206.949a.309.309,0,1,1,.219-.09A.311.311,0,0,1,347.109,206.949Z" transform="translate(-336.069 -199.946)" fill="#fff"/>
  <path id="Path_2681" data-name="Path 2681" d="M60.838,310.619H54.309a.309.309,0,0,1,0-.619h6.529a.309.309,0,0,1,0,.619Z" transform="translate(-52.329 -300.408)" fill="#fff"/>
  <path id="Path_2682" data-name="Path 2682" d="M265.309,366.619a.31.31,0,1,1,.219-.091A.311.311,0,0,1,265.309,366.619Z" transform="translate(-256.8 -354.675)" fill="#fff"/>
  <path id="Path_2683" data-name="Path 2683" d="M59.621,366.619H54.309a.309.309,0,0,1,0-.619h5.312a.309.309,0,1,1,0,.619Z" transform="translate(-52.329 -354.675)" fill="#fff"/>
  <path id="Path_2684" data-name="Path 2684" d="M58.827,254.619H54.309a.309.309,0,0,1,0-.619h4.518a.309.309,0,0,1,0,.619Z" transform="translate(-52.329 -246.14)" fill="#fff"/>
</svg>
