<svg xmlns="http://www.w3.org/2000/svg" width="17" height="14.13" viewBox="0 0 17 14.13">
  <g id="fast-food" transform="translate(0 -58.123)">
    <path id="Path_2651" data-name="Path 2651" d="M25.547,199.848H10.738a.769.769,0,0,0-.738.8h0a.785.785,0,0,0,.578.777c.769.183,1.233,1.352,2.268,1.352,1.323,0,1.323-1.436,2.647-1.436s1.323,1.436,2.647,1.436h.006c1.324,0,1.324-1.436,2.647-1.436s1.323,1.436,2.647,1.436c1.035,0,1.5-1.17,2.268-1.352a.785.785,0,0,0,.578-.777h0A.769.769,0,0,0,25.547,199.848Z" transform="translate(-9.643 -136.665)" fill="#fff"/>
    <g id="Group_351" data-name="Group 351" transform="translate(0.466 64.468)">
      <path id="Path_2652" data-name="Path 2652" d="M98.826,241.58c-1.428,0-1.428,1.436-2.855,1.436h5.71C100.253,243.016,100.253,241.58,98.826,241.58Z" transform="translate(-93.336 -241.375)" fill="#fff"/>
      <path id="Path_2653" data-name="Path 2653" d="M13.11,235.829a1.24,1.24,0,0,0-.058.376v.025a1.24,1.24,0,0,0,1.24,1.24h1.72c-1.116,0-1.617-1.17-2.446-1.352A.791.791,0,0,1,13.11,235.829Z" transform="translate(-13.052 -235.829)" fill="#fff"/>
      <path id="Path_2654" data-name="Path 2654" d="M418.474,236.119c-.83.183-1.33,1.352-2.446,1.352h1.72a1.24,1.24,0,0,0,1.24-1.24v-.025a1.24,1.24,0,0,0-.058-.376A.791.791,0,0,1,418.474,236.119Z" transform="translate(-402.921 -235.83)" fill="#fff"/>
      <path id="Path_2655" data-name="Path 2655" d="M258.951,241.58c-1.428,0-1.428,1.436-2.855,1.436h5.71C260.379,243.016,260.379,241.58,258.951,241.58Z" transform="translate(-248.373 -241.375)" fill="#fff"/>
    </g>
    <path id="Path_2656" data-name="Path 2656" d="M46.69,72.277H31.973v-.188a4.365,4.365,0,0,1,4.172-4.535h6.372a4.365,4.365,0,0,1,4.172,4.535v.188Z" transform="translate(-30.831 -9.094)" fill="#fff"/>
    <g id="Group_352" data-name="Group 352" transform="translate(4.764 66.109)">
      <path id="Path_2657" data-name="Path 2657" d="M173.174,285.312,169.3,281.8h7.742Z" transform="translate(-169.303 -281.802)" fill="#fff"/>
      <path id="Path_2658" data-name="Path 2658" d="M320.306,281.8l-2.437,2.21,1.434,1.3,3.871-3.51Z" transform="translate(-312.565 -281.802)" fill="#fff"/>
    </g>
    <path id="Path_2659" data-name="Path 2659" d="M43.7,351.99l-1.019,1-1.019-1h-.6l-1.019,1-1.019-1H31.973V353a2.186,2.186,0,0,0,2.089,2.271H44.6A2.186,2.186,0,0,0,46.69,353v-1.01Z" transform="translate(-30.831 -283.375)" fill="#fff"/>
    <g id="Group_353" data-name="Group 353" transform="translate(0.466 66.109)">
      <path id="Path_2660" data-name="Path 2660" d="M18.631,281.8H14.3a1.253,1.253,0,0,0,0,2.506h7.089Z" transform="translate(-13.052 -281.802)" fill="#fff"/>
      <path id="Path_2661" data-name="Path 2661" d="M391.794,281.891l-2.76,2.5h2.671a1.253,1.253,0,0,0,.089-2.5Z" transform="translate(-376.89 -281.888)" fill="#fff"/>
    </g>
    <path id="Path_2662" data-name="Path 2662" d="M397.236,153.375a.36.36,0,0,1-.252-.1.375.375,0,0,1-.044-.054.383.383,0,0,1-.033-.062.36.36,0,0,1-.02-.067.355.355,0,0,1-.007-.07.357.357,0,0,1,.427-.35.376.376,0,0,1,.067.02.361.361,0,0,1,.116.077.356.356,0,0,1,.077.389.373.373,0,0,1-.033.062.385.385,0,0,1-.045.054.362.362,0,0,1-.116.077.376.376,0,0,1-.067.02A.359.359,0,0,1,397.236,153.375Z" transform="translate(-383.742 -91.162)" fill="#fd5800"/>
    <path id="Path_2663" data-name="Path 2663" d="M95.846,378.542a.357.357,0,0,1-.07-.007.367.367,0,0,1-.067-.02.354.354,0,0,1-.062-.033.343.343,0,0,1-.054-.044.359.359,0,0,1-.044-.054.379.379,0,0,1-.033-.062.334.334,0,0,1-.02-.067.345.345,0,0,1,0-.14.336.336,0,0,1,.02-.067.379.379,0,0,1,.033-.062.358.358,0,0,1,.044-.054.34.34,0,0,1,.054-.044.35.35,0,0,1,.062-.033.367.367,0,0,1,.067-.02.354.354,0,0,1,.139,0,.378.378,0,0,1,.067.02.359.359,0,0,1,.061.033.34.34,0,0,1,.054.044.385.385,0,0,1,.045.054.379.379,0,0,1,.032.062.335.335,0,0,1,.02.067.344.344,0,0,1,0,.14.333.333,0,0,1-.02.067.379.379,0,0,1-.032.062.386.386,0,0,1-.045.054.345.345,0,0,1-.054.044.363.363,0,0,1-.061.033.378.378,0,0,1-.067.02A.356.356,0,0,1,95.846,378.542Z" transform="translate(-92.328 -308.29)" fill="#fd5800"/>
    <path id="Path_2664" data-name="Path 2664" d="M17,64a1.152,1.152,0,0,0-.731-1.093,4.727,4.727,0,0,0-4.549-4.784H5.279A4.727,4.727,0,0,0,.731,62.907,1.152,1.152,0,0,0,0,64a1.214,1.214,0,0,0,.128.543,1.722,1.722,0,0,0-.026.3v.025a1.643,1.643,0,0,0,.554,1.244,1.683,1.683,0,0,0,.074,2.56v.952a2.544,2.544,0,0,0,2.444,2.628H13.826a2.544,2.544,0,0,0,2.444-2.628v-.952a1.683,1.683,0,0,0,.085-2.549,1.644,1.644,0,0,0,.543-1.234v-.025a1.718,1.718,0,0,0-.029-.316A1.214,1.214,0,0,0,17,64Zm-.792,1.113a.85.85,0,0,1-.654.646.31.31,0,0,0-.067-.007h-.176l.009-.008,0,0,.011-.011.083-.078a4.67,4.67,0,0,1,.4-.351.969.969,0,0,1,.343-.176l.012,0h0l.011,0h0l.009,0h0l.007,0Zm-.617,1.376a.888.888,0,0,1,.643.873.867.867,0,0,1-.833.9H13.778ZM.765,67.362a.867.867,0,0,1,.833-.9H5.493l1.838,1.792H1.6A.867.867,0,0,1,.765,67.362Zm11.195-.9L9.221,69.137,6.482,66.466Zm-.073,2.671-.839-.818,1.9-1.853,1.657.02Zm-1.9-3.385.083-.089a1.28,1.28,0,0,1,2.184,0l.083.089Zm-5.317,0,.083-.089a1.379,1.379,0,0,1,1.092-.613,1.379,1.379,0,0,1,1.092.613l.083.089Zm5.712,3.22h.351l.58.566H9.8Zm-5.1-10.135h6.441A4.031,4.031,0,0,1,15.6,62.846H1.4a4.479,4.479,0,0,1,.065-.614H12.168a.358.358,0,0,0,0-.714H1.651A3.912,3.912,0,0,1,5.279,58.837ZM1.073,63.561H15.927a.425.425,0,0,1,.409.439.435.435,0,0,1-.319.429,1.276,1.276,0,0,0-.151.046,2.722,2.722,0,0,0-.873.628l-.014.014a2.132,2.132,0,0,1-.964.637h-.436a1.547,1.547,0,0,1-.857-.592,2.009,2.009,0,0,0-1.563-.823A2.009,2.009,0,0,0,9.6,65.16a1.547,1.547,0,0,1-.858.592H8.262A1.547,1.547,0,0,1,7.4,65.16a2.009,2.009,0,0,0-1.563-.823,2.009,2.009,0,0,0-1.563.823,1.547,1.547,0,0,1-.857.592H3.187A1.774,1.774,0,0,1,2.021,65.1a2.4,2.4,0,0,0-1.038-.687.4.4,0,0,1-.233-.159A.35.35,0,0,0,.712,64.2.463.463,0,0,1,.664,64,.425.425,0,0,1,1.073,63.561Zm.514,2.192A.834.834,0,0,1,.8,65.115l.042.011a1.933,1.933,0,0,1,.743.526l.106.1Zm12.24,5.787H3.174a1.853,1.853,0,0,1-1.78-1.914v-.652h6.67l.58.566h-3.8a.358.358,0,0,0,0,.714H15.508A1.8,1.8,0,0,1,13.826,71.539Zm1.78-2.567v.566H12.465l.58-.566Z" fill="#fd5800"/>
  </g>
</svg>
