<svg xmlns="http://www.w3.org/2000/svg" width="15.919" height="14.439" viewBox="0 0 15.919 14.439">
  <path id="heart" d="M11.278,22.543a4.59,4.59,0,0,0-2.108.506,4.677,4.677,0,0,0-1.21.892,4.677,4.677,0,0,0-1.21-.892,4.591,4.591,0,0,0-2.108-.506A4.646,4.646,0,0,0,0,27.184C0,29,.957,30.921,2.845,32.905a27.509,27.509,0,0,0,4.847,3.9l.267.173.267-.173a27.508,27.508,0,0,0,4.847-3.9c1.888-1.984,2.845-3.909,2.845-5.721A4.646,4.646,0,0,0,11.278,22.543Z" transform="translate(0 -22.543)" fill="#fd5800"/>
</svg>
