<svg id="fresh-juice" xmlns="http://www.w3.org/2000/svg" width="13" height="16" viewBox="0 0 13 16">
  <path id="Path_2630" data-name="Path 2630" d="M6.563,40.281a3.281,3.281,0,1,0-3.281,3.281A3.285,3.285,0,0,0,6.563,40.281ZM4.835,42.034a2.343,2.343,0,0,1-.811.47l-.742-1.285L2.539,42.5a2.342,2.342,0,0,1-.811-.47l.741-1.284H.985a2.355,2.355,0,0,1,0-.938H2.469l-.741-1.284a2.342,2.342,0,0,1,.811-.47l.742,1.285.742-1.285a2.342,2.342,0,0,1,.811.47l-.741,1.284H5.578a2.355,2.355,0,0,1,0,.938H4.093Zm0,0" transform="translate(0 -35.844)" fill="#fff"/>
  <path id="Path_2631" data-name="Path 2631" d="M299.969,0h-1.562A1.408,1.408,0,0,0,297,1.406V3.031h.938V1.406a.469.469,0,0,1,.469-.469h1.563a.469.469,0,1,0,0-.938Zm0,0" transform="translate(-287.438)" fill="#fff"/>
  <path id="Path_2632" data-name="Path 2632" d="M222.127,127h-4.245a4.209,4.209,0,0,1-.686,2.813H222.3l.29-2.285a.469.469,0,0,0-.465-.528Zm0,0" transform="translate(-210.127 -123.031)" fill="#fff"/>
  <path id="Path_2633" data-name="Path 2633" d="M106.988,247.937l.879,6.935a.469.469,0,0,0,.465.41h5.625a.469.469,0,0,0,.465-.41l1-7.872h-5.846a4.2,4.2,0,0,1-2.586.937Zm0,0" transform="translate(-103.363 -239.281)" fill="#fff"/>
</svg>
