<svg xmlns="http://www.w3.org/2000/svg" width="19.31" height="16.4" viewBox="0 0 19.31 16.4">
  <g id="Component_6_36" data-name="Component 6 – 36" transform="translate(0.5 0.5)">
    <path id="heart" d="M9.155,15.4a1.11,1.11,0,0,1-.708-.251c-.74-.611-1.453-1.186-2.082-1.693l0,0A37.923,37.923,0,0,1,1.816,9.419,6.257,6.257,0,0,1,0,5.2,5.243,5.243,0,0,1,1.453,1.507,5.059,5.059,0,0,1,5.115,0,4.778,4.778,0,0,1,7.992.939,5.716,5.716,0,0,1,9.155,2.087,5.717,5.717,0,0,1,10.318.939,4.778,4.778,0,0,1,13.195,0a5.06,5.06,0,0,1,3.662,1.507A5.243,5.243,0,0,1,18.31,5.2a6.256,6.256,0,0,1-1.816,4.217,37.919,37.919,0,0,1-4.545,4.034c-.63.508-1.345,1.083-2.086,1.7a1.111,1.111,0,0,1-.708.251ZM5.115,1.014a3.97,3.97,0,0,0-2.874,1.18A4.263,4.263,0,0,0,1.072,5.2a5.268,5.268,0,0,0,1.569,3.57,37.325,37.325,0,0,0,4.416,3.909l0,0c.632.509,1.347,1.086,2.093,1.7.75-.617,1.467-1.195,2.1-1.7a37.334,37.334,0,0,0,4.415-3.909A5.269,5.269,0,0,0,17.237,5.2a4.263,4.263,0,0,0-1.169-3.008,3.969,3.969,0,0,0-2.874-1.18,3.69,3.69,0,0,0-2.221.727A5.006,5.006,0,0,0,9.736,3.095a.7.7,0,0,1-1.163,0A5,5,0,0,0,7.336,1.741a3.69,3.69,0,0,0-2.221-.727Zm0,0" transform="translate(0 0)" fill="#fd5800" stroke="#fd5800" stroke-width="1"/>
    <path id="heart-2" data-name="heart" d="M7.507,12.468a.918.918,0,0,1-.58-.2c-.607-.5-1.191-.96-1.707-1.371l0,0A30.97,30.97,0,0,1,1.489,7.626,5.033,5.033,0,0,1,0,4.212,4.216,4.216,0,0,1,1.191,1.22a4.176,4.176,0,0,1,3-1.22A3.951,3.951,0,0,1,6.553.76a4.659,4.659,0,0,1,.954.93A4.66,4.66,0,0,1,8.461.76,3.951,3.951,0,0,1,10.82,0a4.119,4.119,0,0,1,4.194,4.212,5.033,5.033,0,0,1-1.489,3.414A30.966,30.966,0,0,1,9.8,10.891c-.517.411-1.1.877-1.71,1.373a.918.918,0,0,1-.58.2ZM4.194.821a3.276,3.276,0,0,0-2.357.956A3.428,3.428,0,0,0,.879,4.212,4.239,4.239,0,0,0,2.166,7.1a30.483,30.483,0,0,0,3.621,3.165l0,0c.518.412,1.1.879,1.716,1.378.615-.5,1.2-.967,1.721-1.38A30.49,30.49,0,0,0,12.848,7.1a4.239,4.239,0,0,0,1.287-2.89,3.428,3.428,0,0,0-.958-2.435A3.276,3.276,0,0,0,10.82.821,3.052,3.052,0,0,0,9,1.409a4.071,4.071,0,0,0-1.015,1.1.576.576,0,0,1-.954,0,4.067,4.067,0,0,0-1.015-1.1A3.052,3.052,0,0,0,4.194.821Zm0,0" transform="translate(1.648 1.466)" fill="#fd5800" stroke="#fd5800" stroke-width="1"/>
    <path id="heart-3" data-name="heart" d="M5.935,9.671a.734.734,0,0,1-.459-.158C5,9.129,4.534,8.768,4.127,8.45l0,0A24.347,24.347,0,0,1,1.177,5.915,3.869,3.869,0,0,1,0,3.267,3.237,3.237,0,0,1,.942.946,3.334,3.334,0,0,1,3.316,0,3.165,3.165,0,0,1,5.181.59a3.653,3.653,0,0,1,.754.721A3.653,3.653,0,0,1,6.689.59,3.165,3.165,0,0,1,8.554,0a3.335,3.335,0,0,1,2.374.946,3.237,3.237,0,0,1,.942,2.32,3.868,3.868,0,0,1-1.177,2.648A24.345,24.345,0,0,1,7.746,8.448c-.409.319-.872.68-1.352,1.065a.735.735,0,0,1-.459.158ZM3.316.637a2.616,2.616,0,0,0-1.863.741A2.632,2.632,0,0,0,.7,3.267,3.259,3.259,0,0,0,1.713,5.509,23.966,23.966,0,0,0,4.575,7.964l0,0c.409.32.874.682,1.357,1.069.486-.388.951-.75,1.361-1.07a23.972,23.972,0,0,0,2.862-2.455,3.259,3.259,0,0,0,1.017-2.242A2.561,2.561,0,0,0,8.554.637a2.444,2.444,0,0,0-1.44.456,3.181,3.181,0,0,0-.8.85.46.46,0,0,1-.754,0,3.178,3.178,0,0,0-.8-.85A2.444,2.444,0,0,0,3.316.637Zm0,0" transform="translate(3.22 2.864)" fill="#fd5800" stroke="#fd5800" stroke-width="1"/>
    <path id="heart-4" data-name="heart" d="M4.518,7.149a.57.57,0,0,1-.349-.117c-.365-.284-.717-.551-1.027-.786h0A18.393,18.393,0,0,1,.9,4.373,2.821,2.821,0,0,1,0,2.415,2.358,2.358,0,0,1,.717.7,2.579,2.579,0,0,1,2.524,0a2.459,2.459,0,0,1,1.42.436,2.747,2.747,0,0,1,.574.533A2.748,2.748,0,0,1,5.092.436,2.459,2.459,0,0,1,6.512,0,2.579,2.579,0,0,1,8.319.7a2.358,2.358,0,0,1,.717,1.715,2.821,2.821,0,0,1-.9,1.958A18.391,18.391,0,0,1,5.9,6.245c-.311.236-.664.5-1.029.787a.57.57,0,0,1-.349.117ZM2.524.471a2.023,2.023,0,0,0-1.418.548,1.917,1.917,0,0,0-.577,1.4A2.377,2.377,0,0,0,1.3,4.073,18.106,18.106,0,0,0,3.483,5.887h0c.312.236.665.5,1.033.79.37-.286.724-.555,1.036-.791A18.111,18.111,0,0,0,7.732,4.073a2.378,2.378,0,0,0,.774-1.657,1.917,1.917,0,0,0-.577-1.4A2.023,2.023,0,0,0,6.512.471a1.9,1.9,0,0,0-1.1.337,2.38,2.38,0,0,0-.611.629.357.357,0,0,1-.574,0A2.378,2.378,0,0,0,3.62.808a1.9,1.9,0,0,0-1.1-.337Zm0,0" transform="translate(4.637 4.125)" fill="#fd5800" stroke="#fd5800" stroke-width="1"/>
    <path id="heart-5" data-name="heart" d="M3.19,5.677a.374.374,0,0,1-.247-.093c-.258-.225-.506-.437-.726-.624h0A13.493,13.493,0,0,1,.633,3.472,2.375,2.375,0,0,1,0,1.918,1.994,1.994,0,0,1,.506.556,1.716,1.716,0,0,1,1.782,0a1.6,1.6,0,0,1,1,.346A2.051,2.051,0,0,1,3.19.769,2.051,2.051,0,0,1,3.6.346,1.6,1.6,0,0,1,4.6,0,1.716,1.716,0,0,1,5.874.556,1.994,1.994,0,0,1,6.38,1.918a2.375,2.375,0,0,1-.633,1.554A13.491,13.491,0,0,1,4.164,4.959c-.22.187-.469.4-.727.625a.374.374,0,0,1-.247.093ZM1.782.374a1.346,1.346,0,0,0-1,.435A1.622,1.622,0,0,0,.374,1.918,2,2,0,0,0,.921,3.234,13.278,13.278,0,0,0,2.459,4.674h0c.22.188.47.4.729.627.261-.227.511-.44.732-.628A13.281,13.281,0,0,0,5.46,3.234a2,2,0,0,0,.547-1.316A1.622,1.622,0,0,0,5.6.809a1.346,1.346,0,0,0-1-.435,1.24,1.24,0,0,0-.774.268,1.814,1.814,0,0,0-.431.5.236.236,0,0,1-.405,0,1.812,1.812,0,0,0-.431-.5A1.24,1.24,0,0,0,1.782.374Zm0,0" transform="translate(5.965 4.862)" fill="#fd5800" stroke="#fd5800" stroke-width="1"/>
    <path id="heart-6" data-name="heart" d="M2.024,3.6a.237.237,0,0,1-.157-.059c-.164-.143-.321-.277-.46-.4h0A8.561,8.561,0,0,1,.4,2.2,1.507,1.507,0,0,1,0,1.217,1.265,1.265,0,0,1,.321.353,1.089,1.089,0,0,1,1.131,0a1.018,1.018,0,0,1,.636.22,1.3,1.3,0,0,1,.257.269A1.3,1.3,0,0,1,2.282.22,1.018,1.018,0,0,1,2.918,0a1.089,1.089,0,0,1,.81.352,1.265,1.265,0,0,1,.321.864,1.507,1.507,0,0,1-.4.986,8.561,8.561,0,0,1-1.005.943c-.139.119-.3.253-.461.4a.238.238,0,0,1-.156.059ZM1.131.237A.854.854,0,0,0,.5.513a1.029,1.029,0,0,0-.258.7,1.268,1.268,0,0,0,.347.835,8.425,8.425,0,0,0,.976.914h0c.14.119.3.254.463.4.166-.144.324-.279.464-.4a8.427,8.427,0,0,0,.976-.914,1.268,1.268,0,0,0,.347-.835,1.029,1.029,0,0,0-.258-.7A.854.854,0,0,0,2.918.237a.787.787,0,0,0-.491.17,1.151,1.151,0,0,0-.274.317.15.15,0,0,1-.257,0A1.15,1.15,0,0,0,1.622.407a.787.787,0,0,0-.491-.17Zm0,0" transform="translate(7.131 5.899)" fill="#fd5800" stroke="#fd5800" stroke-width="1"/>
    <path id="heart-7" data-name="heart" d="M.956,1.7a.112.112,0,0,1-.074-.028C.805,1.606.731,1.543.665,1.487h0A4.044,4.044,0,0,1,.19,1.041.712.712,0,0,1,0,.575.6.6,0,0,1,.152.167.514.514,0,0,1,.534,0a.481.481,0,0,1,.3.1A.615.615,0,0,1,.956.231.615.615,0,0,1,1.078.1a.481.481,0,0,1,.3-.1.514.514,0,0,1,.383.167.6.6,0,0,1,.152.408.712.712,0,0,1-.19.466,4.044,4.044,0,0,1-.475.446c-.066.056-.14.12-.218.187A.112.112,0,0,1,.956,1.7ZM.534.112a.4.4,0,0,0-.3.13A.486.486,0,0,0,.112.575.6.6,0,0,0,.276.969,3.98,3.98,0,0,0,.737,1.4h0c.066.056.141.12.219.188L1.175,1.4A3.981,3.981,0,0,0,1.637.969.6.6,0,0,0,1.8.575.486.486,0,0,0,1.678.243a.4.4,0,0,0-.3-.13.372.372,0,0,0-.232.08.544.544,0,0,0-.129.15A.071.071,0,0,1,.9.342.543.543,0,0,0,.766.192.372.372,0,0,0,.534.112Zm0,0" transform="translate(8.199 6.85)" fill="#fd5800" stroke="#fd5800" stroke-width="1"/>
  </g>
</svg>
