<svg id="home" xmlns="http://www.w3.org/2000/svg" width="172.594" height="165.955" viewBox="0 0 172.594 165.955">
  <path id="Path_2594" data-name="Path 2594" d="M171,86.019,89.779,12.828a2.281,2.281,0,0,0-.461-.358,4.776,4.776,0,0,0-6.5-.107L1.6,85.554a4.882,4.882,0,0,0-.39,6.833,4.8,4.8,0,0,0,6.78.394l14.625-13.2v85.354A12.129,12.129,0,0,0,34.685,177.1h25.63A11.376,11.376,0,0,0,71.64,165.685V122.293a1.749,1.749,0,0,1,1.739-1.753H99.258A1.749,1.749,0,0,1,101,122.293v43.392A11.376,11.376,0,0,0,112.321,177.1h25.63c6.745,0,12.07-6.69,12.07-15.239V80.045l14.625,13.2a4.8,4.8,0,0,0,6.78-.394A4.952,4.952,0,0,0,171,86.019Zm-60.454,79.595Z" transform="translate(0 -11.141)" fill="#fd5800"/>
</svg>
