<svg xmlns="http://www.w3.org/2000/svg" width="16.018" height="16.019" viewBox="0 0 16.018 16.019">
  <g id="salad" transform="translate(0 0.049)">
    <g id="Group_257" data-name="Group 257" transform="translate(0.003 10.098)">
      <g id="Group_256" data-name="Group 256">
        <path id="Path_2621" data-name="Path 2621" d="M15.848,324.3H.366a.266.266,0,0,0-.266.266,5.608,5.608,0,0,0,5.6,5.606h4.805a5.613,5.613,0,0,0,5.606-5.606A.266.266,0,0,0,15.848,324.3Z" transform="translate(-0.1 -324.3)" fill="#fff"/>
      </g>
    </g>
    <g id="Group_259" data-name="Group 259" transform="translate(5.609 -0.049)">
      <g id="Group_258" data-name="Group 258" transform="translate(0 0)">
        <path id="Path_2622" data-name="Path 2622" d="M187.3,3.691a.6.6,0,0,0,0-.069,1.1,1.1,0,0,0-.748-.942l.3-.3a1.431,1.431,0,0,0,.119-1.915A1.4,1.4,0,0,0,185,.272a1.312,1.312,0,0,0-.1.091L184.573.7a1.115,1.115,0,0,0-.951-.745A1.068,1.068,0,0,0,182.5.963v.469a1.057,1.057,0,0,0-.532-.144.607.607,0,0,0-.069,0,1.109,1.109,0,0,0-1,1.111v.363a1.084,1.084,0,0,0-.532-.144.608.608,0,0,0-.069,0,1.106,1.106,0,0,0-1,1.111V7.693a.266.266,0,0,0,.266.266H184.1a1.067,1.067,0,0,0,.923-1.6h.36a1.1,1.1,0,0,0,1.117-1.01,1.056,1.056,0,0,0-.147-.6,1.069,1.069,0,0,0,.948-1.057Z" transform="translate(-179.295 0.049)" fill="#fff"/>
      </g>
    </g>
    <g id="Group_261" data-name="Group 261" transform="translate(4.084 1.633)">
      <g id="Group_260" data-name="Group 260" transform="translate(0)">
        <rect id="Rectangle_1657" data-name="Rectangle 1657" width="10.571" height="0.535" transform="translate(0 7.475) rotate(-45)" fill="#fff"/>
      </g>
    </g>
    <g id="Group_298" data-name="Group 298">
      <g id="Group_263" data-name="Group 263" transform="translate(9.876 2.089)">
        <g id="Group_262" data-name="Group 262">
          <rect id="Rectangle_1658" data-name="Rectangle 1658" width="0.535" height="1.336" fill="#fd5800"/>
        </g>
      </g>
      <g id="Group_265" data-name="Group 265" transform="translate(8.275 3.425)">
        <g id="Group_264" data-name="Group 264">
          <rect id="Rectangle_1659" data-name="Rectangle 1659" width="0.535" height="1.602" fill="#fd5800"/>
        </g>
      </g>
      <g id="Group_267" data-name="Group 267" transform="translate(6.673 4.758)">
        <g id="Group_266" data-name="Group 266">
          <rect id="Rectangle_1660" data-name="Rectangle 1660" width="0.535" height="1.868" fill="#fd5800"/>
        </g>
      </g>
      <g id="Group_269" data-name="Group 269" transform="translate(10.142 3.159)">
        <g id="Group_268" data-name="Group 268">
          <rect id="Rectangle_1661" data-name="Rectangle 1661" width="1.336" height="0.535" fill="#fd5800"/>
        </g>
      </g>
      <g id="Group_271" data-name="Group 271" transform="translate(8.541 4.758)">
        <g id="Group_270" data-name="Group 270">
          <rect id="Rectangle_1662" data-name="Rectangle 1662" width="1.602" height="0.535" fill="#fd5800"/>
        </g>
      </g>
      <g id="Group_273" data-name="Group 273" transform="translate(6.942 6.36)">
        <g id="Group_272" data-name="Group 272">
          <rect id="Rectangle_1663" data-name="Rectangle 1663" width="1.868" height="0.535" fill="#fd5800"/>
        </g>
      </g>
    </g>
    <g id="Group_275" data-name="Group 275" transform="translate(0.966 0.561)">
      <g id="Group_274" data-name="Group 274">
        <path id="Path_2623" data-name="Path 2623" d="M34.91,20.076h0a1.231,1.231,0,0,0-1.708-.341l-.053.038-.1.072-.094-.066a1.228,1.228,0,0,0-1.689,1.783,1.121,1.121,0,0,0,.228.172l.225.175v.138a1.336,1.336,0,1,0,2.672,0v-.138l.238-.185A1.235,1.235,0,0,0,34.91,20.076Z" transform="translate(-30.893 -19.449)" fill="#fff"/>
      </g>
    </g>
    <g id="Group_277" data-name="Group 277" transform="translate(5.872 0.219)">
      <g id="Group_276" data-name="Group 276">
        <rect id="Rectangle_1664" data-name="Rectangle 1664" width="0.535" height="0.535" fill="#fff"/>
      </g>
    </g>
    <g id="Group_279" data-name="Group 279" transform="translate(7.474 8.762)">
      <g id="Group_278" data-name="Group 278">
        <rect id="Rectangle_1665" data-name="Rectangle 1665" width="0.535" height="0.535" fill="#fff"/>
      </g>
    </g>
    <g id="Group_281" data-name="Group 281" transform="translate(14.416 1.555)">
      <g id="Group_280" data-name="Group 280">
        <path id="Path_2624" data-name="Path 2624" d="M460.8,51.2v.535a.535.535,0,1,1,0,1.07v.535a1.07,1.07,0,0,0,0-2.14Z" transform="translate(-460.8 -51.2)" fill="#fff"/>
      </g>
    </g>
    <g id="Group_283" data-name="Group 283" transform="translate(0.535 3.96)">
      <g id="Group_282" data-name="Group 282">
        <rect id="Rectangle_1666" data-name="Rectangle 1666" width="0.535" height="0.535" fill="#fff"/>
      </g>
    </g>
    <g id="Group_285" data-name="Group 285" transform="translate(0 2.89)">
      <g id="Group_284" data-name="Group 284">
        <rect id="Rectangle_1667" data-name="Rectangle 1667" width="0.535" height="0.535" fill="#fff"/>
      </g>
    </g>
    <g id="Group_287" data-name="Group 287" transform="translate(9.345 8.497)">
      <g id="Group_286" data-name="Group 286">
        <path id="Path_2625" data-name="Path 2625" d="M299.767,273.1a1.068,1.068,0,0,0-1.067,1.067h.535a.535.535,0,0,1,1.07,0h.535A1.078,1.078,0,0,0,299.767,273.1Z" transform="translate(-298.7 -273.1)" fill="#fff"/>
      </g>
    </g>
    <g id="Group_289" data-name="Group 289" transform="translate(0 5.293)">
      <g id="Group_288" data-name="Group 288">
        <path id="Path_2626" data-name="Path 2626" d="M3.2,171.5H3.169a1.068,1.068,0,0,0-2.068,0H1.067a1.067,1.067,0,0,0,0,2.134H3.2a1.067,1.067,0,0,0,0-2.134Z" transform="translate(0 -170.7)" fill="#fff"/>
      </g>
    </g>
    <g id="Group_291" data-name="Group 291" transform="translate(1.336 7.696)">
      <g id="Group_290" data-name="Group 290">
        <path id="Path_2627" data-name="Path 2627" d="M44.033,247.5H42.966a.266.266,0,0,0-.266.266v1.067a.266.266,0,0,0,.266.266h1.067a.266.266,0,0,0,.266-.266v-1.067A.262.262,0,0,0,44.033,247.5Z" transform="translate(-42.7 -247.5)" fill="#fff"/>
      </g>
    </g>
    <g id="Group_296" data-name="Group 296" transform="translate(12.282 5.828)">
      <g id="Group_293" data-name="Group 293" transform="translate(1.067 1.067)">
        <g id="Group_292" data-name="Group 292">
          <path id="Path_2628" data-name="Path 2628" d="M427.5,221.9a.8.8,0,1,0,.8.8A.8.8,0,0,0,427.5,221.9Zm0,1.067a.266.266,0,1,1,.266-.266A.266.266,0,0,1,427.5,222.967Z" transform="translate(-426.7 -221.9)" fill="#fff"/>
        </g>
      </g>
      <g id="Group_295" data-name="Group 295">
        <g id="Group_294" data-name="Group 294">
          <path id="Path_2629" data-name="Path 2629" d="M394.468,187.8a1.868,1.868,0,1,0,1.868,1.868A1.871,1.871,0,0,0,394.468,187.8Zm0,3.2a1.336,1.336,0,1,1,1.336-1.336A1.337,1.337,0,0,1,394.468,191Z" transform="translate(-392.6 -187.8)" fill="#fff"/>
        </g>
      </g>
    </g>
    <g id="Group_297" data-name="Group 297" transform="translate(4.084 1.633)">
      <g id="Group_260-2" data-name="Group 260" transform="translate(0)">
        <rect id="Rectangle_1657-2" data-name="Rectangle 1657" width="7.571" height="0.535" transform="translate(2.121 5.353) rotate(-45)" fill="#fd5800"/>
      </g>
    </g>
  </g>
</svg>
