<svg xmlns="http://www.w3.org/2000/svg" width="16" height="16" viewBox="0 0 16 16">
  <g id="indian" transform="translate(-0.003 0)">
    <g id="Group_310" data-name="Group 310" transform="translate(0.003 0)">
      <g id="Group_309" data-name="Group 309" transform="translate(0 0)">
        <path id="Path_2646" data-name="Path 2646" d="M13.66,2.343A8,8,0,0,0,10.091.276a.237.237,0,0,0-.123.457A7.537,7.537,0,1,1,8.69.5.237.237,0,0,0,8.733.033a8,8,0,1,0,4.927,2.31Z" transform="translate(-0.003 0)" fill="#fff"/>
      </g>
    </g>
    <g id="Group_312" data-name="Group 312" transform="translate(3.077 7.379)">
      <g id="Group_311" data-name="Group 311">
        <circle id="Ellipse_7" data-name="Ellipse 7" cx="0.25" cy="0.25" r="0.25" fill="#fff"/>
      </g>
    </g>
    <g id="Group_314" data-name="Group 314" transform="translate(6.004 3.642)">
      <g id="Group_313" data-name="Group 313">
        <circle id="Ellipse_8" data-name="Ellipse 8" cx="0.25" cy="0.25" r="0.25" fill="#fff"/>
      </g>
    </g>
    <g id="Group_316" data-name="Group 316" transform="translate(8.899 4.283)">
      <g id="Group_315" data-name="Group 315">
        <circle id="Ellipse_9" data-name="Ellipse 9" cx="0.25" cy="0.25" r="0.25" fill="#fd5800"/>
      </g>
    </g>
    <g id="Group_318" data-name="Group 318" transform="translate(8.899 5.283)">
      <g id="Group_317" data-name="Group 317">
        <circle id="Ellipse_10" data-name="Ellipse 10" cx="0.25" cy="0.25" r="0.25" fill="#fd5800"/>
      </g>
    </g>
    <g id="Group_320" data-name="Group 320" transform="translate(1.228 1.467)">
      <g id="Group_319" data-name="Group 319">
        <path id="Path_2647" data-name="Path 2647" d="M52.577,53.146a6.421,6.421,0,0,0-2.142-4.459l-1.361-1.219a.756.756,0,0,0-.089-.069.682.682,0,0,0-.93.082l-.261.291a3.669,3.669,0,0,0-5.862,1.893,3.679,3.679,0,0,0-2.24,1.722.237.237,0,1,0,.411.236,3.207,3.207,0,0,1,1.73-1.433,3.689,3.689,0,0,0-.024.386,2.805,2.805,0,0,0-.736,4.7l-.3.336a3.173,3.173,0,0,1-1.09-2.4,3.212,3.212,0,0,1,.084-.733.237.237,0,0,0-.461-.108,3.687,3.687,0,0,0-.1.841,3.643,3.643,0,0,0,1.248,2.757l-.111.124a.684.684,0,0,0,.053.965q.1.093.212.182l1.2,1.077a6.416,6.416,0,0,0,4.3,1.649q.181,0,.364-.01a6.464,6.464,0,0,0,6.1-6.809Zm-10.226-3.2a.237.237,0,0,0,.015-.068,3.2,3.2,0,0,1,5.111-1.752l-.219.245a2.782,2.782,0,0,0-1.341-.584.237.237,0,0,0-.271.234v1.608a.236.236,0,0,0,.029.113l-.446.177a1.03,1.03,0,0,0-.139.069.7.7,0,0,1,.1-.105.237.237,0,0,0,.079-.177V48.038a.237.237,0,0,0-.28-.233,2.807,2.807,0,0,0-2.232,3.3h0l-.43.015a3.23,3.23,0,0,1-.04-.5A3.2,3.2,0,0,1,42.351,49.946Zm4.069-.639-.235.263c-.021-.021-.042-.041-.065-.059v-1.2a2.309,2.309,0,0,1,.822.413l-.2.223a.25.25,0,0,0-.323.36ZM43.71,50.67a.289.289,0,0,0-.111.349l.149.375-.046.031a1.424,1.424,0,0,0-.446-.246,2.334,2.334,0,0,1,1.536-2.836v1.266a1.39,1.39,0,0,0-.342.779,1.036,1.036,0,0,0-.171.051l-.125.05a.25.25,0,1,0-.444.182Zm.743.208a.547.547,0,0,1,.344-.021.237.237,0,0,0,.286-.155.551.551,0,0,1,.321-.342l.347-.138.1.245a.551.551,0,0,1-.029.47.237.237,0,0,0,.105.327.55.55,0,0,1,.274.293l.1.245-.347.138a.547.547,0,0,1-.449-.019l-.02-.558a.237.237,0,0,0-.245-.228l-.756.027h0a1.43,1.43,0,0,0-.3.042l-.075-.188Zm-1.687.7a.953.953,0,0,1,.748.321.237.237,0,0,0,.343.011.951.951,0,0,1,.638-.275l.519-.018.016.445v0l.008.235a.96.96,0,0,1-.842.982.237.237,0,0,0-.209.243l0,.049a.956.956,0,0,1-.921.988l-.519.018-.009-.266a.237.237,0,0,0,0-.121l-.01-.3a.948.948,0,0,1,.167-.574.237.237,0,0,0-.05-.321.953.953,0,0,1-.37-.722l-.024-.684Zm-2.193,1.581a2.339,2.339,0,0,1,1.263-2.073c.006.047.013.093.02.139l0,0a.313.313,0,0,0-.084.226l.011.311a.25.25,0,1,0,.014.393l0,.138a1.424,1.424,0,0,0,.4.94,1.418,1.418,0,0,0-.144.677l.009.26-.18.2c0-.007,0-.015,0-.022a.25.25,0,1,0-.2.245l-.3.33A2.338,2.338,0,0,1,40.574,53.158ZM50.586,57.5a5.991,5.991,0,0,1-7.99.846,6.328,6.328,0,0,0,2.032.335,6.413,6.413,0,0,0,.967-.073c.129-.02.4-.1.526-.123a4.194,4.194,0,0,1,.511-.139.237.237,0,0,0,.077-.013l.1-.036-.038.5h0a.359.359,0,0,0,.33.385l.544.042h.028a.359.359,0,0,0,.357-.331l.019-.246a.237.237,0,1,0,.023-.339.359.359,0,0,0-.331-.343l-.147-.011a6.373,6.373,0,0,0,1.773-1.383l.081-.091a.359.359,0,0,0,.311.24l.544.042h.028a.359.359,0,0,0,.357-.331l.041-.544a.358.358,0,0,0-.33-.385l-.2-.015a6.3,6.3,0,0,0,.676-1.52l.013,0,.544.042h.028a.359.359,0,0,0,.357-.331l.042-.544a.359.359,0,0,0-.33-.385l-.417-.032a6.387,6.387,0,0,0-.589-3.282,5.99,5.99,0,0,1,.067,8.066Zm-.654-1.562.315.024-.024.315-.315-.024Zm-2.344,2.486-.024.315-.315-.024.024-.315ZM51.036,53.5l.024-.315.315.024-.024.315Z" transform="translate(-39.207 -46.947)" fill="#fff"/>
      </g>
    </g>
    <g id="Group_322" data-name="Group 322" transform="translate(9.455 5.79)">
      <g id="Group_321" data-name="Group 321">
        <path id="Path_2648" data-name="Path 2648" d="M303.356,185.294h-.545a.359.359,0,0,0-.358.359v.545a.359.359,0,0,0,.358.358h.545a.359.359,0,0,0,.358-.358v-.545A.359.359,0,0,0,303.356,185.294Zm-.115.789h-.316v-.316h.316Z" transform="translate(-302.452 -185.294)" fill="#fd5800"/>
      </g>
    </g>
    <g id="Group_324" data-name="Group 324" transform="translate(7.679 10.081)">
      <g id="Group_323" data-name="Group 323">
        <path id="Path_2649" data-name="Path 2649" d="M246.6,322.649l-.544-.042a.359.359,0,0,0-.385.33l-.042.544a.359.359,0,0,0,.33.385l.544.042h.028a.359.359,0,0,0,.357-.331l.042-.544A.359.359,0,0,0,246.6,322.649Zm-.175.778-.315-.024.024-.315.315.024Z" transform="translate(-245.629 -322.607)" fill="#fd5800"/>
      </g>
    </g>
    <g id="Group_326" data-name="Group 326" transform="translate(9.738 7.911)">
      <g id="Group_325" data-name="Group 325">
        <path id="Path_2650" data-name="Path 2650" d="M312.926,253.7l-.346-.421a.359.359,0,0,0-.5-.05l-.422.346a.359.359,0,0,0-.05.5l.346.421a.356.356,0,0,0,.242.129l.036,0a.356.356,0,0,0,.227-.081l.422-.346A.359.359,0,0,0,312.926,253.7Zm-.683.412-.2-.244.244-.2.2.244Z" transform="translate(-311.523 -253.151)" fill="#fd5800"/>
      </g>
    </g>
    <g id="Group_328" data-name="Group 328" transform="translate(5.925 9.385)">
      <g id="Group_327" data-name="Group 327">
        <circle id="Ellipse_11" data-name="Ellipse 11" cx="0.237" cy="0.237" r="0.237" fill="#fd5800"/>
      </g>
    </g>
    <g id="Group_330" data-name="Group 330" transform="translate(8.649 8.886)">
      <g id="Group_329" data-name="Group 329">
        <circle id="Ellipse_12" data-name="Ellipse 12" cx="0.237" cy="0.237" r="0.237" fill="#fd5800"/>
      </g>
    </g>
    <g id="Group_332" data-name="Group 332" transform="translate(11.005 12.402)">
      <g id="Group_331" data-name="Group 331">
        <circle id="Ellipse_13" data-name="Ellipse 13" cx="0.237" cy="0.237" r="0.237" fill="#fff"/>
      </g>
    </g>
    <g id="Group_334" data-name="Group 334" transform="translate(11.924 11.595)">
      <g id="Group_333" data-name="Group 333">
        <circle id="Ellipse_14" data-name="Ellipse 14" cx="0.237" cy="0.237" r="0.237" fill="#fff"/>
      </g>
    </g>
    <g id="Group_336" data-name="Group 336" transform="translate(7.34 13.238)">
      <g id="Group_335" data-name="Group 335">
        <circle id="Ellipse_15" data-name="Ellipse 15" cx="0.237" cy="0.237" r="0.237" fill="#fff"/>
      </g>
    </g>
    <g id="Group_338" data-name="Group 338" transform="translate(11.005 11.595)">
      <g id="Group_337" data-name="Group 337">
        <circle id="Ellipse_16" data-name="Ellipse 16" cx="0.237" cy="0.237" r="0.237" fill="#fff"/>
      </g>
    </g>
    <g id="Group_340" data-name="Group 340" transform="translate(12.909 8.693)">
      <g id="Group_339" data-name="Group 339">
        <circle id="Ellipse_17" data-name="Ellipse 17" cx="0.237" cy="0.237" r="0.237" fill="#fff"/>
      </g>
    </g>
    <g id="Group_342" data-name="Group 342" transform="translate(13.383 6.405)">
      <g id="Group_341" data-name="Group 341">
        <circle id="Ellipse_18" data-name="Ellipse 18" cx="0.237" cy="0.237" r="0.237" fill="#fff"/>
      </g>
    </g>
    <g id="Group_344" data-name="Group 344" transform="translate(12.909 9.858)">
      <g id="Group_343" data-name="Group 343">
        <circle id="Ellipse_19" data-name="Ellipse 19" cx="0.237" cy="0.237" r="0.237" fill="#fff"/>
      </g>
    </g>
    <g id="Group_346" data-name="Group 346" transform="translate(11.395 7.129)">
      <g id="Group_345" data-name="Group 345">
        <circle id="Ellipse_20" data-name="Ellipse 20" cx="0.237" cy="0.237" r="0.237" fill="#fd5800"/>
      </g>
    </g>
    <g id="Group_348" data-name="Group 348" transform="translate(9.849 4.917)">
      <g id="Group_347" data-name="Group 347">
        <circle id="Ellipse_21" data-name="Ellipse 21" cx="0.237" cy="0.237" r="0.237" fill="#fd5800"/>
      </g>
    </g>
  </g>
</svg>
