<svg xmlns="http://www.w3.org/2000/svg" width="25" height="25" viewBox="0 0 25 25">
  <path id="ic_my_location_24px" d="M13.5,8.955A4.545,4.545,0,1,0,18.045,13.5,4.544,4.544,0,0,0,13.5,8.955Zm10.159,3.409a10.221,10.221,0,0,0-9.023-9.023V1H12.364V3.341a10.221,10.221,0,0,0-9.023,9.023H1v2.273H3.341a10.221,10.221,0,0,0,9.023,9.023V26h2.273V23.659a10.221,10.221,0,0,0,9.023-9.023H26V12.364H23.659ZM13.5,21.455A7.955,7.955,0,1,1,21.455,13.5,7.949,7.949,0,0,1,13.5,21.455Z" transform="translate(-1 -1)" fill="#fd5800"/>
</svg>
