<svg xmlns="http://www.w3.org/2000/svg" width="19.05" height="25.3" viewBox="0 0 19.05 25.3">
  <g id="location-pin" transform="translate(-2.85 0.15)">
    <path id="Path_2583" data-name="Path 2583" d="M12.375,25a.523.523,0,0,1-.345-.13C11.661,24.544,3,16.817,3,9.375a9.375,9.375,0,1,1,18.75,0c0,7.442-8.661,15.169-9.03,15.495A.523.523,0,0,1,12.375,25Zm0-23.958A8.343,8.343,0,0,0,4.042,9.375c0,6.165,6.72,12.873,8.333,14.395,1.614-1.522,8.333-8.23,8.333-14.395A8.343,8.343,0,0,0,12.375,1.042Z" stroke="#000" stroke-width="0.3"/>
    <path id="Path_2584" data-name="Path 2584" d="M12.208,14.417a5.208,5.208,0,1,1,5.208-5.208A5.214,5.214,0,0,1,12.208,14.417Zm0-9.375a4.167,4.167,0,1,0,4.167,4.167A4.171,4.171,0,0,0,12.208,5.042Z" transform="translate(0.167 0.167)" stroke="#000" stroke-width="0.3"/>
  </g>
</svg>
