<svg xmlns="http://www.w3.org/2000/svg" width="14.439" height="14.439" viewBox="0 0 14.439 14.439">
  <g id="logout" transform="translate(0 -0.004)">
    <path id="Path_2673" data-name="Path 2673" d="M9.024,7.825a.6.6,0,0,0-.6.6v2.407a.6.6,0,0,1-.6.6h-1.8V2.41A1.213,1.213,0,0,0,5.2,1.267l-.178-.06h2.8a.6.6,0,0,1,.6.6v1.8a.6.6,0,1,0,1.2,0v-1.8A1.807,1.807,0,0,0,7.821,0H1.354a.473.473,0,0,0-.064.013C1.26.015,1.233,0,1.2,0A1.2,1.2,0,0,0,0,1.207V12.036A1.213,1.213,0,0,0,.819,13.18L4.44,14.387a1.246,1.246,0,0,0,.373.056,1.2,1.2,0,0,0,1.2-1.2v-.6h1.8a1.807,1.807,0,0,0,1.8-1.8V8.427a.6.6,0,0,0-.6-.6Zm0,0" transform="translate(0)" fill="#fd5800"/>
    <path id="Path_2674" data-name="Path 2674" d="M283.774,109.248l-2.407-2.406a.6.6,0,0,0-1.027.425v1.8h-2.406a.6.6,0,1,0,0,1.2h2.406v1.8a.6.6,0,0,0,1.027.425l2.407-2.407a.6.6,0,0,0,0-.851Zm0,0" transform="translate(-269.511 -103.654)" fill="#fd5800"/>
  </g>
</svg>
