<svg xmlns="http://www.w3.org/2000/svg" width="25" height="15.624" viewBox="0 0 25 15.624">
  <g id="mastercard" transform="translate(0 -54.719)">
    <path id="Path_2726" data-name="Path 2726" d="M15.619,62.531a7.809,7.809,0,1,1-7.809-7.812A7.81,7.81,0,0,1,15.619,62.531Z" fill="#e2574c"/>
    <path id="Path_2727" data-name="Path 2727" d="M117.243,54.719a7.766,7.766,0,0,0-4.667,1.558h.006a6.693,6.693,0,0,1,.757.707l-1.625.026a8.03,8.03,0,0,0-.705.827h2.865a7.258,7.258,0,0,1,.6.778h-3.987a7.784,7.784,0,0,0-.4.779h4.84a6.652,6.652,0,0,1,.336.754H109.8a7.526,7.526,0,0,0-.217.826H115.5c.058.27.1.52.133.775h-6.159c-.026.257-.039.518-.039.781h6.242a6.865,6.865,0,0,1-.048.781h-6.156q.04.4.117.781h5.9c-.061.253-.131.508-.22.772h-5.481a7.581,7.581,0,0,0,.294.78h4.851a7.113,7.113,0,0,1-.455.778h-4a7.6,7.6,0,0,0,.521.784l2.878.043a7.6,7.6,0,0,1-.847.73c.016.013-.459,0-1.392-.016a7.81,7.81,0,1,0,5.607-13.244Z" transform="translate(-100.054)" fill="#f4b459"/>
  </g>
</svg>
