<svg xmlns="http://www.w3.org/2000/svg" width="24.052" height="14." viewBox="0 0 24.052 19.09">
  <g id="money" transform="translate(0 -23.272)">
    <g id="Group_2522" data-name="Group 2522" transform="translate(0 23.272)">
      <path id="Path_2730" data-name="Path 2730" d="M22.958,37.484H1.093A1.1,1.1,0,0,1,0,36.391V24.365a1.1,1.1,0,0,1,1.093-1.093H22.958a1.1,1.1,0,0,1,1.093,1.093V36.391A1.1,1.1,0,0,1,22.958,37.484Z" transform="translate(0 -23.272)" fill="#0e9347"/>
      <path id="Path_2731" data-name="Path 2731" d="M254.218,232.727a3.659,3.659,0,0,0-3.061,1.585,4.078,4.078,0,0,0-1.859-.492,3.825,3.825,0,0,0-3.772,3.28h11.425a1.112,1.112,0,0,0,1.093-.929A3.894,3.894,0,0,0,254.218,232.727Z" transform="translate(-233.993 -222.888)" fill="#0d8944"/>
      <path id="Path_2732" data-name="Path 2732" d="M42.952,58.572H25.459a2.193,2.193,0,0,0-2.186-2.186V48.733a2.193,2.193,0,0,0,2.186-2.186H42.952a2.193,2.193,0,0,0,2.186,2.186v7.653A2.193,2.193,0,0,0,42.952,58.572Z" transform="translate(-22.18 -45.452)" fill="#3bb54a"/>
      <g id="Group_2519" data-name="Group 2519" transform="translate(4.373 2.187)">
        <path id="Path_2733" data-name="Path 2733" d="M260.872,232.727a3.659,3.659,0,0,0-3.061,1.585,4.077,4.077,0,0,0-1.858-.492,3.755,3.755,0,0,0-3.444,2.186h8.91a2.182,2.182,0,0,1,2.132-2.186A3.952,3.952,0,0,0,260.872,232.727Z" transform="translate(-245.02 -225.074)" fill="#0e9347"/>
        <ellipse id="Ellipse_33" data-name="Ellipse 33" cx="4.373" cy="4.92" rx="4.373" ry="4.92" transform="translate(3.28 0)" fill="#0e9347"/>
        <circle id="Ellipse_34" data-name="Ellipse 34" cx="1.093" cy="1.093" r="1.093" transform="translate(0 3.826)" fill="#0e9347"/>
        <circle id="Ellipse_35" data-name="Ellipse 35" cx="1.093" cy="1.093" r="1.093" transform="translate(13.119 3.826)" fill="#0e9347"/>
      </g>
      <path id="Path_2734" data-name="Path 2734" d="M212.188,107.462h-1.093a.547.547,0,1,1,0-1.093h1.64a.547.547,0,1,0,0-1.093h-.547a.547.547,0,1,0-1.093,0,1.64,1.64,0,1,0,0,3.28h1.093a.547.547,0,1,1,0,1.093h-1.64a.547.547,0,1,0,0,1.093h.547a.547.547,0,1,0,1.093,0,1.64,1.64,0,1,0,0-3.28Z" transform="translate(-199.616 -100.902)" fill="#89c763"/>
    </g>
    <g id="Group_2523" data-name="Group 2523" transform="translate(10.386 30.336)">
      <circle id="Ellipse_40" data-name="Ellipse 40" cx="3.826" cy="3.826" r="3.826" transform="translate(0 1.094)" fill="#ffca5d"/>
      <path id="Path_2761" data-name="Path 2761" d="M407.273,317.954h0a3.757,3.757,0,0,0,3.826-3.772h-.055a.581.581,0,0,0-.547.492,3.3,3.3,0,0,1-1.039,1.968,3.1,3.1,0,0,1-1.695.82A.49.49,0,0,0,407.273,317.954Z" transform="translate(-398.527 -310.355)" fill="#f6b545"/>
      <path id="Path_2762" data-name="Path 2762" d="M329.644,233.866h0a3.757,3.757,0,0,0-3.826,3.772h.055a.581.581,0,0,0,.547-.492,3.3,3.3,0,0,1,1.039-1.968,3.1,3.1,0,0,1,1.695-.82A.49.49,0,0,0,329.644,233.866Z" transform="translate(-320.898 -233.81)" fill="#ffe27a"/>
      <g id="Group_2521" data-name="Group 2521" transform="translate(6.013 1.804)">
        <path id="Path_2742" data-name="Path 2742" d="M350.074,275.228a2.875,2.875,0,0,1-.656-1.749,2.646,2.646,0,0,1,.875-1.968,2.376,2.376,0,0,0-.328-.383,2.678,2.678,0,0,0-.875,2.023A2.621,2.621,0,0,0,350.074,275.228Z" transform="translate(-349.09 -271.128)" fill="#e78825"/>
        <path id="Path_2743" data-name="Path 2743" d="M395.636,321.164v.765a.547.547,0,0,0,1.093,0v-.109A4.468,4.468,0,0,0,395.636,321.164Z" transform="translate(-393.449 -318.814)" fill="#e78825"/>
      </g>
      <path id="Path_2745" data-name="Path 2745" d="M409.131,372.364a3.779,3.779,0,0,1-1.367.547.581.581,0,0,0-.492.547h0a3.666,3.666,0,0,0,2.023-.6Z" transform="translate(-398.526 -365.805)" fill="#f19920"/>
      <path id="Path_2746" data-name="Path 2746" d="M326.911,257.164a3.952,3.952,0,0,0-1.093,2.678h.055a.581.581,0,0,0,.547-.492,3.4,3.4,0,0,1,.984-1.913A2.219,2.219,0,0,1,326.911,257.164Z" transform="translate(-320.898 -256.016)" fill="#ffcb5b"/>
      <path id="Path_2747" data-name="Path 2747" d="M290.909,318.007a3.789,3.789,0,0,0,.164,1.093h.383a3.813,3.813,0,0,0,3.662-4.92h-.383A3.8,3.8,0,0,0,290.909,318.007Z" transform="translate(-287.629 -310.354)" fill="#f19920"/>
      <path id="Path_2749" data-name="Path 2749" d="M302.545,341.227h0a3.757,3.757,0,0,0,3.826-3.772h-.055a.581.581,0,0,0-.547.492,3.3,3.3,0,0,1-1.039,1.968,3.1,3.1,0,0,1-1.695.82A.49.49,0,0,0,302.545,341.227Z" transform="translate(-298.719 -332.535)" fill="#f6b545"/>
      <path id="Path_2750" data-name="Path 2750" d="M224.916,257.139h0a3.757,3.757,0,0,0-3.826,3.772h.055a.581.581,0,0,0,.547-.492,3.3,3.3,0,0,1,1.039-1.968,3.1,3.1,0,0,1,1.695-.82A.49.49,0,0,0,224.916,257.139Z" transform="translate(-221.09 -255.991)" fill="#ffe27a"/>
      <path id="Path_2752" data-name="Path 2752" d="M332.465,333.6a.2.2,0,0,1-.164-.055.264.264,0,0,1,0-.383,1.824,1.824,0,0,0,.492-1.257.273.273,0,1,1,.547,0,2.524,2.524,0,0,1-.6,1.64A.594.594,0,0,1,332.465,333.6Z" transform="translate(-326.998 -326.989)" fill="#ffcb5b"/>
      <path id="Path_2756" data-name="Path 2756" d="M360.727,411.045h0a3.757,3.757,0,0,0,3.826-3.772H364.5a.581.581,0,0,0-.547.492,3.3,3.3,0,0,1-1.039,1.968,3.1,3.1,0,0,1-1.695.82A.49.49,0,0,0,360.727,411.045Z" transform="translate(-354.167 -399.073)" fill="#f6b545"/>
      <circle id="Ellipse_37" data-name="Ellipse 37" cx="3.826" cy="3.826" r="3.826" transform="translate(4.92 0)" fill="#f6b545"/>
      <path id="Path_2735" data-name="Path 2735" d="M329.644,232.727a3.826,3.826,0,1,0,3.826,3.826A3.8,3.8,0,0,0,329.644,232.727Zm0,6.56a2.733,2.733,0,1,1,2.733-2.733A2.707,2.707,0,0,1,329.644,239.287Z" transform="translate(-320.898 -232.727)" fill="#ffcb5b"/>
      <path id="Path_2738" data-name="Path 2738" d="M349.474,259.116a2.707,2.707,0,0,1,2.733-2.733,2.578,2.578,0,0,1,1.749.656,2.725,2.725,0,0,0-4.865,1.695,2.621,2.621,0,0,0,.984,2.077A2.564,2.564,0,0,1,349.474,259.116Z" transform="translate(-343.078 -254.906)" fill="#f19920"/>
      <path id="Path_2739" data-name="Path 2739" d="M437.192,310.332a.2.2,0,0,1-.164-.055.264.264,0,0,1,0-.383,1.824,1.824,0,0,0,.492-1.257.273.273,0,0,1,.547,0,2.524,2.524,0,0,1-.6,1.64A.594.594,0,0,1,437.192,310.332Z" transform="translate(-426.806 -304.811)" fill="#ffcb5b"/>
      <g id="Group_2520" data-name="Group 2520" transform="translate(4.974 1.094)">
        <path id="Path_2740" data-name="Path 2740" d="M396.184,282.554a.516.516,0,0,1-.547-.547v-2.186a.547.547,0,0,1,1.093,0v2.186A.516.516,0,0,1,396.184,282.554Z" transform="translate(-392.412 -278.181)" fill="#f19920"/>
        <path id="Path_2741" data-name="Path 2741" d="M332.775,261.958a4.441,4.441,0,0,0-2.624-2.952A4.57,4.57,0,0,0,328.074,256a3.951,3.951,0,0,0-1.093,2.678,3.8,3.8,0,0,0,3.826,3.826A3.17,3.17,0,0,0,332.775,261.958Z" transform="translate(-326.981 -256)" fill="#f19920"/>
      </g>
      <path id="Path_2744" data-name="Path 2744" d="M331.667,263.066a3.494,3.494,0,0,0-.437-1.039,2.645,2.645,0,0,1-1.585.547,2.707,2.707,0,0,1-2.733-2.733,2.678,2.678,0,0,1,.875-2.023,3.334,3.334,0,0,0-.875-.656,3.951,3.951,0,0,0-1.093,2.678,3.8,3.8,0,0,0,3.826,3.826A3.665,3.665,0,0,0,331.667,263.066Z" transform="translate(-320.898 -256.014)" fill="#f6b545"/>
      <circle id="Ellipse_38" data-name="Ellipse 38" cx="3.826" cy="3.826" r="3.826" transform="translate(0 1.094)" fill="#f6b545"/>
      <path id="Path_2748" data-name="Path 2748" d="M224.916,256a3.826,3.826,0,1,0,3.826,3.826A3.8,3.8,0,0,0,224.916,256Zm0,6.56a2.733,2.733,0,1,1,2.733-2.733A2.707,2.707,0,0,1,224.916,262.56Z" transform="translate(-221.09 -254.906)" fill="#ffcb5b"/>
      <path id="Path_2751" data-name="Path 2751" d="M244.746,282.389a2.707,2.707,0,0,1,2.733-2.733,2.578,2.578,0,0,1,1.749.656,2.725,2.725,0,0,0-4.865,1.695,2.621,2.621,0,0,0,.984,2.077A2.564,2.564,0,0,1,244.746,282.389Z" transform="translate(-243.27 -277.087)" fill="#f19920"/>
      <path id="Path_2753" data-name="Path 2753" d="M291.456,305.827a.516.516,0,0,1-.547-.547v-2.186a.547.547,0,1,1,1.093,0v2.186A.516.516,0,0,1,291.456,305.827Z" transform="translate(-287.629 -299.267)" fill="#f19920"/>
      <path id="Path_2754" data-name="Path 2754" d="M293.971,314.236a3.2,3.2,0,0,1,.219,1.039,2.707,2.707,0,0,1-2.733,2.733,1.859,1.859,0,0,1-.547-.055v.055a3.789,3.789,0,0,0,.164,1.093h.383a3.813,3.813,0,0,0,3.662-4.92h-.383A3.615,3.615,0,0,0,293.971,314.236Z" transform="translate(-287.63 -310.354)" fill="#f6b545"/>
      <circle id="Ellipse_39" data-name="Ellipse 39" cx="3.826" cy="3.826" r="3.826" transform="translate(2.733 4.373)" fill="#f6b545"/>
      <path id="Path_2755" data-name="Path 2755" d="M283.1,325.818a3.826,3.826,0,1,0,3.826,3.826A3.8,3.8,0,0,0,283.1,325.818Zm0,6.56a2.733,2.733,0,1,1,2.733-2.733A2.707,2.707,0,0,1,283.1,332.378Z" transform="translate(-276.539 -321.445)" fill="#ffcb5b"/>
      <path id="Path_2758" data-name="Path 2758" d="M302.928,352.207a2.707,2.707,0,0,1,2.733-2.733,2.578,2.578,0,0,1,1.749.656,2.725,2.725,0,0,0-4.865,1.695,2.621,2.621,0,0,0,.984,2.077A2.564,2.564,0,0,1,302.928,352.207Z" transform="translate(-298.719 -343.624)" fill="#f19920"/>
      <path id="Path_2759" data-name="Path 2759" d="M390.646,403.422a.2.2,0,0,1-.164-.055.264.264,0,0,1,0-.383,1.824,1.824,0,0,0,.492-1.257.273.273,0,1,1,.547,0,2.524,2.524,0,0,1-.6,1.64A.594.594,0,0,1,390.646,403.422Z" transform="translate(-382.446 -393.528)" fill="#ffcb5b"/>
      <path id="Path_2760" data-name="Path 2760" d="M349.638,375.644a.516.516,0,0,1-.547-.547v-2.187a.547.547,0,1,1,1.093,0V375.1A.516.516,0,0,1,349.638,375.644Z" transform="translate(-343.078 -365.805)" fill="#f19920"/>
      <path id="Path_2757" data-name="Path 2757" d="M283.1,326.957h0a3.757,3.757,0,0,0-3.826,3.772h.055a.581.581,0,0,0,.547-.492,3.3,3.3,0,0,1,1.039-1.968,3.1,3.1,0,0,1,1.695-.82A.49.49,0,0,0,283.1,326.957Z" transform="translate(-276.539 -322.529)" fill="#ffe27a"/>
    </g>
  </g>
</svg>
