<svg xmlns="http://www.w3.org/2000/svg" width="19.31" height="16.4" viewBox="0 0 19.31 16.4">
  <g id="Component_6_38" data-name="Component 6 – 38" transform="translate(0.5 0.5)">
    <path id="heart" d="M9.155,15.4a1.11,1.11,0,0,1-.708-.251c-.74-.611-1.453-1.186-2.082-1.693l0,0A37.923,37.923,0,0,1,1.816,9.419,6.257,6.257,0,0,1,0,5.2,5.243,5.243,0,0,1,1.453,1.507,5.059,5.059,0,0,1,5.115,0,4.778,4.778,0,0,1,7.992.939,5.716,5.716,0,0,1,9.155,2.087,5.717,5.717,0,0,1,10.318.939,4.778,4.778,0,0,1,13.195,0a5.06,5.06,0,0,1,3.662,1.507A5.243,5.243,0,0,1,18.31,5.2a6.256,6.256,0,0,1-1.816,4.217,37.919,37.919,0,0,1-4.545,4.034c-.63.508-1.345,1.083-2.086,1.7a1.111,1.111,0,0,1-.708.251ZM5.115,1.014a3.97,3.97,0,0,0-2.874,1.18A4.263,4.263,0,0,0,1.072,5.2a5.268,5.268,0,0,0,1.569,3.57,37.325,37.325,0,0,0,4.416,3.909l0,0c.632.509,1.347,1.086,2.093,1.7.75-.617,1.467-1.195,2.1-1.7a37.334,37.334,0,0,0,4.415-3.909A5.269,5.269,0,0,0,17.237,5.2a4.263,4.263,0,0,0-1.169-3.008,3.969,3.969,0,0,0-2.874-1.18,3.69,3.69,0,0,0-2.221.727A5.006,5.006,0,0,0,9.736,3.095a.7.7,0,0,1-1.163,0A5,5,0,0,0,7.336,1.741a3.69,3.69,0,0,0-2.221-.727Zm0,0" transform="translate(0 0)" fill="#fd5800" stroke="#fd5800" stroke-width="1"/>
  </g>
</svg>
