<svg id="order" xmlns="http://www.w3.org/2000/svg" width="160.922" height="165.955" viewBox="0 0 160.922 165.955">
  <path id="Path_2595" data-name="Path 2595" d="M162.685,57.253A10.367,10.367,0,0,0,152.363,46.9H12.083a10.334,10.334,0,0,0-2.46,20.367l14.232,67.516a11.388,11.388,0,0,0,11.34,11.371h95.914a11.388,11.388,0,0,0,11.34-11.371l14.387-68.254A10.351,10.351,0,0,0,162.685,57.253ZM48.124,121.591a3.559,3.559,0,0,1-3.544,3.553H43.6a3.56,3.56,0,0,1-3.544-3.553V80A3.559,3.559,0,0,1,43.6,76.446h.977A3.559,3.559,0,0,1,48.124,80Zm25.946,0a3.559,3.559,0,0,1-3.544,3.553h-.977A3.56,3.56,0,0,1,66,121.591V80a3.558,3.558,0,0,1,3.544-3.553h.977A3.559,3.559,0,0,1,74.069,80Zm25.944,0a3.558,3.558,0,0,1-3.544,3.553h-.975a3.558,3.558,0,0,1-3.543-3.553V80a3.557,3.557,0,0,1,3.543-3.553h.977A3.559,3.559,0,0,1,100.015,80v41.593Zm25.946,0a3.558,3.558,0,0,1-3.543,3.553h-.977a3.56,3.56,0,0,1-3.544-3.553V80a3.559,3.559,0,0,1,3.544-3.553h.977A3.557,3.557,0,0,1,125.959,80Z" transform="translate(-1.763 19.798)" fill="#929292"/>
  <path id="Path_2596" data-name="Path 2596" d="M29.361,49.931a46.055,46.055,0,0,1,91.229,0c.468,7.661,10.3,6.435,10.3,0a56.27,56.27,0,0,0-111.824,0C19.063,57.9,29.486,58.207,29.361,49.931Z" transform="translate(5.711 0)" fill="#929292"/>
</svg>
