<svg xmlns="http://www.w3.org/2000/svg" width="16.055" height="10.702" viewBox="0 0 16.055 10.702">
  <g id="credit-card" transform="translate(0 -85.333)">
    <g id="Group_2321" data-name="Group 2321" transform="translate(0 85.333)">
      <g id="Group_2320" data-name="Group 2320" transform="translate(0 0)">
        <path id="Path_2668" data-name="Path 2668" d="M14.381,85.333H1.672A1.675,1.675,0,0,0,0,87.005v7.358a1.674,1.674,0,0,0,1.672,1.672H14.381a1.674,1.674,0,0,0,1.672-1.672V87.005A1.674,1.674,0,0,0,14.381,85.333Zm0,10.033Z" transform="translate(0 -85.333)" fill="#fd5800"/>
      </g>
    </g>
    <g id="Group_2323" data-name="Group 2323" transform="translate(0 87.986)">
      <g id="Group_2322" data-name="Group 2322" transform="translate(0 0)">
        <rect id="Rectangle_1700" data-name="Rectangle 1700" width="16.055" height="2.381" fill="#fff"/>
      </g>
    </g>
    <g id="Group_2325" data-name="Group 2325" transform="translate(1.787 92.07)">
      <g id="Group_2324" data-name="Group 2324" transform="translate(0 0)">
        <path id="Path_2670" data-name="Path 2670" d="M67.873,298.667H64.3a.3.3,0,1,0,0,.6h3.575a.3.3,0,1,0,0-.6Z" transform="translate(-64 -298.667)" fill="#fff"/>
      </g>
    </g>
    <g id="Group_2327" data-name="Group 2327" transform="translate(1.787 93.418)">
      <g id="Group_2326" data-name="Group 2326" transform="translate(0 0)">
        <path id="Path_2671" data-name="Path 2671" d="M67.873,341.333H64.3a.3.3,0,1,0,0,.6h3.575a.3.3,0,1,0,0-.6Z" transform="translate(-64 -341.333)" fill="#fff"/>
      </g>
    </g>
    <g id="Group_2329" data-name="Group 2329" transform="translate(11.882 91.572)">
      <g id="Group_2328" data-name="Group 2328" transform="translate(0 0)">
        <path id="Path_2672" data-name="Path 2672" d="M364.156,277.333h-.6a.9.9,0,0,0-.894.894v.6a.9.9,0,0,0,.894.894h.6a.9.9,0,0,0,.894-.894v-.6A.9.9,0,0,0,364.156,277.333Zm.3,1.489a.3.3,0,0,1-.3.3h-.6a.3.3,0,0,1-.3-.3v-.6a.3.3,0,0,1,.3-.3h.6a.3.3,0,0,1,.3.3Z" transform="translate(-362.667 -277.333)" fill="#fff"/>
      </g>
    </g>
  </g>
</svg>
