<svg id="phone-call" xmlns="http://www.w3.org/2000/svg" width="11.975" height="12" viewBox="0 0 11.975 12">
  <g id="Group_2469" data-name="Group 2469">
    <path id="Path_2723" data-name="Path 2723" d="M12.2,8.807,10.525,7.132a1.114,1.114,0,0,0-1.854.419,1.14,1.14,0,0,1-1.316.718,5.164,5.164,0,0,1-3.11-3.11,1.084,1.084,0,0,1,.718-1.316,1.114,1.114,0,0,0,.419-1.854L3.707.314a1.2,1.2,0,0,0-1.615,0L.956,1.45c-1.136,1.2.12,4.366,2.931,7.177s5.981,4.127,7.177,2.931L12.2,10.422A1.194,1.194,0,0,0,12.2,8.807Z" transform="translate(-0.539 0)" fill="#fff"/>
  </g>
</svg>
