<svg id="qr-code" xmlns="http://www.w3.org/2000/svg" width="25" height="25" viewBox="0 0 25 25">
  <path id="Path_2795" data-name="Path 2795" d="M.691,5.068a.691.691,0,0,0,.691-.691V1.382H4.377A.691.691,0,1,0,4.377,0H.691A.691.691,0,0,0,0,.691V4.377A.691.691,0,0,0,.691,5.068Z"/>
  <path id="Path_2796" data-name="Path 2796" d="M406.377,0h-3.686a.691.691,0,0,0,0,1.382h2.995V4.377a.691.691,0,1,0,1.382,0V.691A.691.691,0,0,0,406.377,0Z" transform="translate(-382.068)"/>
  <path id="Path_2797" data-name="Path 2797" d="M4.377,405.686H1.382v-2.995a.691.691,0,0,0-1.382,0v3.686a.691.691,0,0,0,.691.691H4.377a.691.691,0,1,0,0-1.382Z" transform="translate(0 -382.068)"/>
  <path id="Path_2798" data-name="Path 2798" d="M406.377,402a.691.691,0,0,0-.691.691v2.995h-2.995a.691.691,0,1,0,0,1.382h3.686a.691.691,0,0,0,.691-.691v-3.686A.691.691,0,0,0,406.377,402Z" transform="translate(-382.068 -382.068)"/>
  <path id="Path_2799" data-name="Path 2799" d="M301.691,67.911h5.529a.691.691,0,0,0,.691-.691V61.691A.691.691,0,0,0,307.22,61h-5.529a.691.691,0,0,0-.691.691V67.22A.691.691,0,0,0,301.691,67.911Zm.691-5.529h4.147v4.147h-4.147Z" transform="translate(-285.722 -58.189)"/>
  <path id="Path_2800" data-name="Path 2800" d="M67.22,301H61.691a.691.691,0,0,0-.691.691v5.529a.691.691,0,0,0,.691.691H67.22a.691.691,0,0,0,.691-.691v-5.529A.691.691,0,0,0,67.22,301Zm-.691,5.529H62.382v-4.147h4.147Z" transform="translate(-58.189 -285.722)"/>
  <path id="Path_2801" data-name="Path 2801" d="M307.911,307.22v-5.529a.691.691,0,1,0-1.382,0v4.838h-4.838a.691.691,0,1,0,0,1.382h5.529A.691.691,0,0,0,307.911,307.22Z" transform="translate(-285.722 -285.722)"/>
  <path id="Path_2802" data-name="Path 2802" d="M67.22,61H61.691a.691.691,0,0,0-.691.691V67.22a.691.691,0,0,0,.691.691H67.22a.691.691,0,0,0,.691-.691V61.691A.691.691,0,0,0,67.22,61Zm-.691,5.529H62.382V62.382h4.147Z" transform="translate(-58.189 -58.189)"/>
  <path id="Path_2803" data-name="Path 2803" d="M241.691,67.911a.691.691,0,0,0,.691-.691V61.691a.691.691,0,1,0-1.382,0V67.22A.691.691,0,0,0,241.691,67.911Z" transform="translate(-229.191 -58.189)"/>
  <path id="Path_2804" data-name="Path 2804" d="M246.529,241.691a.691.691,0,0,0-.691-.691h-4.147a.691.691,0,0,0-.691.691v8.294a.691.691,0,0,0,1.382,0v-7.6h3.456A.691.691,0,0,0,246.529,241.691Z" transform="translate(-229.029 -228.486)"/>
  <path id="Path_2805" data-name="Path 2805" d="M61.691,242.382h1.382a.691.691,0,1,0,0-1.382H61.691a.691.691,0,0,0,0,1.382Z" transform="translate(-58.189 -229.191)"/>
  <path id="Path_2806" data-name="Path 2806" d="M361,301.691v2.765a.691.691,0,0,0,1.382,0v-2.765a.691.691,0,1,0-1.382,0Z" transform="translate(-343.311 -286.126)"/>
  <path id="Path_2807" data-name="Path 2807" d="M301,301.691v2.765a.691.691,0,0,0,1.382,0v-2.765a.691.691,0,1,0-1.382,0Z" transform="translate(-286.251 -286.126)"/>
  <path id="Path_2808" data-name="Path 2808" d="M393.073,241h-1.382a.691.691,0,1,0,0,1.382h1.382a.691.691,0,0,0,0-1.382Z" transform="translate(-371.575 -229.191)"/>
  <circle id="Ellipse_44" data-name="Ellipse 44" cx="0.5" cy="0.5" r="0.5" transform="translate(17.843 6.157)"/>
  <circle id="Ellipse_45" data-name="Ellipse 45" cx="0.5" cy="0.5" r="0.5" transform="translate(6.157 6.157)"/>
  <circle id="Ellipse_46" data-name="Ellipse 46" cx="0.5" cy="0.5" r="0.5" transform="translate(6.157 17.843)"/>
  <path id="Path_2809" data-name="Path 2809" d="M153.073,241h-1.382a.691.691,0,0,0,0,1.382h1.382a.691.691,0,0,0,0-1.382Z" transform="translate(-143.572 -229.191)"/>
</svg>
