<svg xmlns="http://www.w3.org/2000/svg" width="13.822" height="17.53" viewBox="0 0 13.822 17.53">
  <g id="badge" transform="translate(-54.154)">
    <g id="Group_2315" data-name="Group 2315" transform="translate(54.154)">
      <g id="Group_2314" data-name="Group 2314">
        <path id="Path_2666" data-name="Path 2666" d="M61.065,0a6.909,6.909,0,0,0-3.877,12.629v4.4a.506.506,0,0,0,.713.461l3.164-1.424,3.164,1.424a.506.506,0,0,0,.713-.461v-4.4A6.909,6.909,0,0,0,61.065,0ZM63.93,16.242l-2.658-1.2a.505.505,0,0,0-.415,0l-2.658,1.2V13.2a6.876,6.876,0,0,0,.781.3l.045.014.1.03.076.022.083.022.1.025.069.017.112.026.058.013.123.025.05.01.132.023.045.008.137.02.042.006.139.017.042,0,.14.013.042,0,.139.009.045,0,.141.006.042,0,.183,0,.183,0,.042,0,.141-.006.045,0,.139-.009.042,0,.14-.013.042,0,.139-.017.042-.006.137-.02.045-.008.132-.023.05-.01.123-.025.058-.013.112-.026.069-.017.1-.025.083-.022L63,13.545l.1-.03.045-.014a6.877,6.877,0,0,0,.781-.3v3.042Zm3.034-9.331Z" transform="translate(-54.154)" fill="#fd5800"/>
      </g>
    </g>
    <g id="Group_2317" data-name="Group 2317" transform="translate(57.056 2.36)">
      <g id="Group_2316" data-name="Group 2316" transform="translate(0)">
        <path id="Path_2667" data-name="Path 2667" d="M145.916,73.475l.95-1.785a.506.506,0,0,0-.429-.743l-2.021-.07-1.071-1.715a.506.506,0,0,0-.858,0l-1.071,1.715-2.021.07a.506.506,0,0,0-.429.743l.95,1.785-.95,1.785A.506.506,0,0,0,139.4,76l2.021.07,1.071,1.715a.506.506,0,0,0,.858,0l1.071-1.715,2.021-.07a.506.506,0,0,0,.429-.743Z" transform="translate(-138.907 -68.924)" fill="#fff"/>
      </g>
    </g>
  </g>
</svg>
