<svg xmlns="http://www.w3.org/2000/svg" width="13.448" height="17.83" viewBox="0 0 13.448 17.83">
  <g id="location-pin" transform="translate(-2.85 0.15)">
    <path id="Path_2583" data-name="Path 2583" d="M9.574,17.53a.367.367,0,0,1-.242-.091C9.073,17.21,3,11.792,3,6.574a6.574,6.574,0,0,1,13.148,0c0,5.218-6.073,10.636-6.332,10.865A.367.367,0,0,1,9.574,17.53Z" transform="translate(0 0)" fill="#fd5800" stroke="#fd5800" stroke-width="0.3"/>
    <path id="Path_2584" data-name="Path 2584" d="M10.6,11.423A3.663,3.663,0,0,1,7,7.711,3.663,3.663,0,0,1,10.6,4a3.663,3.663,0,0,1,3.6,3.711A3.663,3.663,0,0,1,10.6,11.423Z" transform="translate(-1.031 -1.112)" fill="#fff" stroke="#fd5800" stroke-width="0.3"/>
  </g>
</svg>
