<svg xmlns="http://www.w3.org/2000/svg" width="15.5" height="14.923" viewBox="0 0 15.5 14.923">
  <path id="Path_2665" data-name="Path 2665" d="M14.92,13.688l-3.646-3.505a5.99,5.99,0,0,0,1.57-4.033A6.284,6.284,0,0,0,6.447,0,6.284,6.284,0,0,0,.05,6.15a6.286,6.286,0,0,0,6.4,6.15,6.522,6.522,0,0,0,4.195-1.509L14.288,14.3a.461.461,0,0,0,.316.128.447.447,0,0,0,.316-.128A.421.421,0,0,0,14.92,13.688ZM.945,6.15A5.4,5.4,0,0,1,6.444.863a5.4,5.4,0,0,1,5.5,5.286,5.4,5.4,0,0,1-5.5,5.29A5.4,5.4,0,0,1,.945,6.15Z" transform="translate(0.2 0.25)" fill="#fff" stroke="#fff" stroke-width="0.5"/>
</svg>
