<svg xmlns="http://www.w3.org/2000/svg" width="173.094" height="166.456" viewBox="0 0 173.094 166.456">
  <g id="search" transform="translate(0.25 0.25)">
    <path id="Path_2587" data-name="Path 2587" d="M171.151,157.492,129.2,117.162a68.92,68.92,0,0,0,18.067-46.4C147.266,31.719,114.232,0,73.658,0,33.045,0,.05,31.756.05,70.761s33.034,70.761,73.608,70.761a75.043,75.043,0,0,0,48.268-17.368l41.952,40.33a5.308,5.308,0,0,0,3.636,1.472,5.145,5.145,0,0,0,3.636-1.472A4.839,4.839,0,0,0,171.151,157.492ZM10.347,70.761c0-33.559,28.4-60.826,63.273-60.826,34.909,0,63.273,27.3,63.273,60.826s-28.364,60.863-63.273,60.863C38.749,131.624,10.347,104.32,10.347,70.761Z" transform="translate(-0.05)" fill="#fd5800" stroke="#929292" stroke-width="0.5"/>
  </g>
</svg>
