<svg xmlns="http://www.w3.org/2000/svg" width="25" height="25" viewBox="0 0 25 25">
  <g id="settings" transform="translate(0 31.85) rotate(-90)">
    <g id="Group_167" data-name="Group 167" transform="translate(6.85)">
      <path id="Path_2580" data-name="Path 2580" d="M176.433,12.185V.7a.705.705,0,0,0-1.41,0V12.185a3.566,3.566,0,0,0,0,7v5.111a.705.705,0,0,0,1.41,0V19.181a3.566,3.566,0,0,0,0-7Zm-.705,5.658a2.16,2.16,0,1,1,2.167-2.16A2.165,2.165,0,0,1,175.727,17.843Z" transform="translate(-163.2)"/>
      <path id="Path_2581" data-name="Path 2581" d="M11.133,6.293V.7a.705.705,0,0,0-1.41,0v5.59a3.566,3.566,0,0,0,0,7v11a.705.705,0,0,0,1.41,0V13.283a3.563,3.563,0,0,0,0-6.99Zm-.705,5.658a2.16,2.16,0,1,1,2.167-2.16A2.165,2.165,0,0,1,10.427,11.951Z" transform="translate(-6.85)"/>
      <path id="Path_2582" data-name="Path 2582" d="M340.733,6.293V.7a.705.705,0,0,0-1.41,0v5.59a3.566,3.566,0,0,0,0,7V24.3a.705.705,0,0,0,1.41,0V13.283a3.563,3.563,0,0,0,0-6.99Zm-.705,5.658a2.16,2.16,0,1,1,2.167-2.16A2.165,2.165,0,0,1,340.027,11.951Z" transform="translate(-318.605)"/>
    </g>
  </g>
</svg>
