<svg id="sri-lankan" xmlns="http://www.w3.org/2000/svg" width="16.076" height="16" viewBox="0 0 16.076 16">
  <path id="Path_2634" data-name="Path 2634" d="M15.158,134.972a1.553,1.553,0,0,0-.915-2.574,1.544,1.544,0,0,0-.369-.784,1.814,1.814,0,0,0,.905-1.568v-.259H14a1.809,1.809,0,0,0-1.357.614,1.568,1.568,0,0,0-.995-.6,1.563,1.563,0,0,0-1.028-1.23,1.554,1.554,0,0,0-1.1-1.313,1.553,1.553,0,0,0-2.974,0,1.554,1.554,0,0,0-1.1,1.314,1.559,1.559,0,0,0-.6.39,1.806,1.806,0,0,0-1.22-.476H2.853v.259a1.812,1.812,0,0,0,.747,1.464,1.546,1.546,0,0,0-.469.888,1.56,1.56,0,0,0-1.3,1.3,1.553,1.553,0,0,0-.915,2.575H0v.259a1.818,1.818,0,0,0,1.3,1.739v1.114H14.78V136.97a1.818,1.818,0,0,0,1.3-1.739v-.259ZM14,130.3h.233a1.3,1.3,0,0,1-1.27,1.037h-.233A1.3,1.3,0,0,1,14,130.3Zm-10.372-1.3a1.3,1.3,0,0,1,1.27,1.037H4.668a1.3,1.3,0,0,1-1.27-1.037Zm4.408,5.7a.259.259,0,1,1,.259.259A.26.26,0,0,1,8.038,134.713Zm6.223,1.815v1.037H1.815v-1.037a1.3,1.3,0,0,1-1.27-1.037H15.532a1.3,1.3,0,0,1-1.27,1.037Zm0,0" transform="translate(0 -122.083)" fill="#fff"/>
  <path id="Path_2635" data-name="Path 2635" d="M312.778,303.712a.778.778,0,1,0-.778-.778A.779.779,0,0,0,312.778,303.712Zm0-1.037a.259.259,0,1,1-.259.259A.26.26,0,0,1,312.778,302.675Zm0,0" transform="translate(-301.888 -292.379)" fill="#fd5800"/>
  <path id="Path_2636" data-name="Path 2636" d="M232.778,215.712a.778.778,0,1,0-.778-.778A.779.779,0,0,0,232.778,215.712Zm0-1.037a.259.259,0,1,1-.259.259A.26.26,0,0,1,232.778,214.675Zm0,0" transform="translate(-224.481 -207.231)" fill="#fd5800"/>
  <path id="Path_2637" data-name="Path 2637" d="M92.667,318.156h-.778a1.814,1.814,0,0,0-1.556.885,1.814,1.814,0,0,0-1.556-.885H88v.259a1.817,1.817,0,0,0,1.815,1.815h1.037a1.817,1.817,0,0,0,1.815-1.815Zm-2.852,1.556a1.3,1.3,0,0,1-1.27-1.037h.233a1.3,1.3,0,0,1,1.27,1.037Zm1.037,0h-.233a1.3,1.3,0,0,1,1.27-1.037h.233A1.3,1.3,0,0,1,90.852,319.712Zm0,0" transform="translate(-85.148 -307.86)" fill="#fd5800"/>
  <path id="Path_2638" data-name="Path 2638" d="M48,358.156h.519v.519H48Zm0,0" transform="translate(-46.444 -346.564)" fill="#fff"/>
  <path id="Path_2639" data-name="Path 2639" d="M264,294.156h.519v.519H264Zm0,0" transform="translate(-255.443 -284.638)" fill="#fd5800"/>
  <path id="Path_2640" data-name="Path 2640" d="M408,358.156h.519v.519H408Zm0,0" transform="translate(-394.776 -346.564)" fill="#fd5800"/>
  <path id="Path_2641" data-name="Path 2641" d="M240,158.156h.519v.519H240Zm0,0" transform="translate(-232.221 -153.046)" fill="#fd5800"/>
  <path id="Path_2642" data-name="Path 2642" d="M136,278.156h.519v.519H136Zm0,0" transform="translate(-131.592 -269.157)" fill="#fd5800"/>
  <path id="Path_2643" data-name="Path 2643" d="M232.595,3.978l.367-.367-.259-.259a.622.622,0,0,1-.183-.443V2.865a.621.621,0,0,1,.184-.443,1.138,1.138,0,0,0,.335-.809V1.569A1.137,1.137,0,0,0,232.7.76L232.443.5l-.367.367.259.259a.622.622,0,0,1,.183.443v.045a.621.621,0,0,1-.184.443,1.138,1.138,0,0,0-.335.809V2.91a1.137,1.137,0,0,0,.335.809Zm0,0" transform="translate(-224.481 -0.5)" fill="#fff"/>
  <path id="Path_2644" data-name="Path 2644" d="M176.595,27.978l.367-.367-.259-.259a.622.622,0,0,1-.183-.443v-.045a.621.621,0,0,1,.184-.443,1.138,1.138,0,0,0,.335-.809v-.045a1.137,1.137,0,0,0-.335-.809l-.259-.259-.367.367.259.259a.622.622,0,0,1,.183.443v.045a.621.621,0,0,1-.184.443,1.138,1.138,0,0,0-.335.809v.045a1.137,1.137,0,0,0,.335.809Zm0,0" transform="translate(-170.296 -23.722)" fill="#fff"/>
  <path id="Path_2645" data-name="Path 2645" d="M288.595,27.978l.367-.367-.259-.259a.622.622,0,0,1-.183-.443v-.045a.621.621,0,0,1,.184-.443,1.138,1.138,0,0,0,.335-.809v-.045a1.137,1.137,0,0,0-.335-.809l-.259-.259-.367.367.259.259a.622.622,0,0,1,.183.443v.045a.621.621,0,0,1-.184.443,1.138,1.138,0,0,0-.335.809v.045a1.137,1.137,0,0,0,.335.809Zm0,0" transform="translate(-278.666 -23.722)" fill="#fff"/>
</svg>
