<svg xmlns="http://www.w3.org/2000/svg" width="25" height="7.824" viewBox="0 0 25 7.824">
  <g id="visa" transform="translate(0 -100.23)">
    <g id="Group_2518" data-name="Group 2518" transform="translate(2.336 100.23)">
      <g id="Group_2517" data-name="Group 2517" transform="translate(0 0)">
        <path id="Path_2728" data-name="Path 2728" d="M35.145,100.23l-1.255,7.808H35.9l1.254-7.808Zm6.049,3.18c-.7-.346-1.13-.58-1.13-.934.009-.322.363-.652,1.155-.652a3.49,3.49,0,0,1,1.494.289l.182.081.273-1.634a5.062,5.062,0,0,0-1.8-.322c-1.98,0-3.375,1.03-3.384,2.5-.016,1.087,1,1.69,1.758,2.052.776.371,1.04.612,1.04.941-.009.506-.627.74-1.2.74a4.078,4.078,0,0,1-1.882-.4l-.264-.12-.28,1.7a6.263,6.263,0,0,0,2.237.4c2.1,0,3.474-1.014,3.491-2.584C42.885,104.609,42.35,103.95,41.194,103.41Zm7.115-3.156H46.757a.994.994,0,0,0-1.048.628l-2.979,7.156h2.1l.58-1.549h2.355l.3,1.555h1.856ZM46,104.925c.041,0,.808-2.529.808-2.529l.611,2.529Zm-13.784-4.7-1.965,5.3-.214-1.046a5.829,5.829,0,0,0-2.773-3.17l1.8,6.712h2.122l3.153-7.8H32.214Z" transform="translate(-27.262 -100.23)" fill="#2394bc"/>
      </g>
    </g>
    <path id="Path_2729" data-name="Path 2729" d="M4.448,101.253a1.31,1.31,0,0,0-1.3-1.005H.032L0,100.392a7.638,7.638,0,0,1,5.126,4.172Z" transform="translate(0 -0.016)" fill="#efc75e"/>
  </g>
</svg>
